%FSLAX24Y24*%
%MOMM*%
%SFA1B1*%

%IPPOS*%
%ADD10C,0.599948*%
%ADD11C,0.249936*%
%ADD12C,0.254000*%
%ADD13C,0.199898*%
%ADD14C,0.152400*%
%ADD15C,0.127000*%
%ADD16R,0.426720X1.148080*%
%LNpcb_cloud_controller-1*%
%LPD*%
G54D10*
X1079195Y934217D02*
D01*
X1079187Y934426*
X1079165Y934634*
X1079129Y934840*
X1079078Y935043*
X1079014Y935242*
X1078935Y935437*
X1078843Y935625*
X1078739Y935806*
X1078622Y935980*
X1078493Y936145*
X1078353Y936300*
X1078202Y936446*
X1078042Y936580*
X1077872Y936703*
X1077695Y936814*
X1077510Y936913*
X1077319Y936998*
X1077122Y937069*
X1076921Y937127*
X1076716Y937171*
X1076508Y937200*
X1076300Y937214*
X1076090*
X1075881Y937200*
X1075674Y937171*
X1075469Y937127*
X1075268Y937069*
X1075071Y936998*
X1074880Y936913*
X1074695Y936814*
X1074517Y936703*
X1074348Y936580*
X1074188Y936446*
X1074037Y936300*
X1073897Y936145*
X1073768Y935980*
X1073651Y935806*
X1073546Y935625*
X1073455Y935437*
X1073376Y935242*
X1073311Y935043*
X1073261Y934840*
X1073224Y934634*
X1073202Y934426*
X1073195Y934217*
X1073202Y934007*
X1073224Y933799*
X1073261Y933593*
X1073311Y933390*
X1073376Y933190*
X1073455Y932996*
X1073546Y932808*
X1073651Y932627*
X1073768Y932453*
X1073897Y932288*
X1074037Y932133*
X1074188Y931987*
X1074348Y931853*
X1074517Y931730*
X1074695Y931619*
X1074880Y931520*
X1075071Y931435*
X1075268Y931364*
X1075469Y931306*
X1075674Y931262*
X1075881Y931233*
X1076090Y931219*
X1076300*
X1076508Y931233*
X1076716Y931262*
X1076921Y931306*
X1077122Y931364*
X1077319Y931435*
X1077510Y931520*
X1077695Y931619*
X1077872Y931730*
X1078042Y931853*
X1078202Y931987*
X1078353Y932133*
X1078493Y932288*
X1078622Y932453*
X1078739Y932627*
X1078843Y932808*
X1078935Y932996*
X1079014Y933190*
X1079078Y933390*
X1079129Y933593*
X1079165Y933799*
X1079187Y934007*
X1079195Y934217*
G54D11*
X1052944Y947216D02*
D01*
X1052941Y947303*
X1052932Y947390*
X1052916Y947476*
X1052895Y947561*
X1052868Y947644*
X1052836Y947725*
X1052797Y947803*
X1052754Y947878*
X1052705Y947951*
X1052651Y948019*
X1052593Y948084*
X1052530Y948145*
X1052463Y948201*
X1052393Y948252*
X1052319Y948298*
X1052242Y948339*
X1052162Y948375*
X1052080Y948405*
X1051996Y948429*
X1051911Y948447*
X1051825Y948459*
X1051738Y948465*
X1051650*
X1051563Y948459*
X1051477Y948447*
X1051392Y948429*
X1051308Y948405*
X1051226Y948375*
X1051146Y948339*
X1051069Y948298*
X1050995Y948252*
X1050925Y948201*
X1050858Y948145*
X1050795Y948084*
X1050737Y948019*
X1050683Y947951*
X1050634Y947878*
X1050590Y947803*
X1050552Y947725*
X1050520Y947644*
X1050493Y947561*
X1050472Y947476*
X1050456Y947390*
X1050447Y947303*
X1050444Y947216*
X1050447Y947129*
X1050456Y947042*
X1050472Y946956*
X1050493Y946872*
X1050520Y946789*
X1050552Y946708*
X1050590Y946630*
X1050634Y946554*
X1050683Y946482*
X1050737Y946413*
X1050795Y946348*
X1050858Y946287*
X1050925Y946231*
X1050995Y946180*
X1051069Y946134*
X1051146Y946093*
X1051226Y946058*
X1051308Y946028*
X1051392Y946004*
X1051477Y945985*
X1051563Y945973*
X1051650Y945967*
X1051738*
X1051825Y945973*
X1051911Y945985*
X1051996Y946004*
X1052080Y946028*
X1052162Y946058*
X1052242Y946093*
X1052319Y946134*
X1052393Y946180*
X1052463Y946231*
X1052530Y946287*
X1052593Y946348*
X1052651Y946413*
X1052705Y946482*
X1052754Y946554*
X1052797Y946630*
X1052836Y946708*
X1052868Y946789*
X1052895Y946872*
X1052916Y946956*
X1052932Y947042*
X1052941Y947129*
X1052944Y947216*
X1331368Y818690D02*
D01*
X1331365Y818777*
X1331356Y818863*
X1331341Y818949*
X1331320Y819034*
X1331293Y819117*
X1331260Y819198*
X1331222Y819276*
X1331178Y819352*
X1331130Y819424*
X1331076Y819493*
X1331018Y819558*
X1330955Y819618*
X1330888Y819675*
X1330818Y819726*
X1330744Y819772*
X1330666Y819813*
X1330587Y819848*
X1330505Y819878*
X1330421Y819902*
X1330336Y819920*
X1330249Y819933*
X1330162Y819939*
X1330075*
X1329988Y819933*
X1329902Y819920*
X1329816Y819902*
X1329732Y819878*
X1329650Y819848*
X1329571Y819813*
X1329494Y819772*
X1329420Y819726*
X1329349Y819675*
X1329282Y819618*
X1329220Y819558*
X1329161Y819493*
X1329108Y819424*
X1329059Y819352*
X1329015Y819276*
X1328977Y819198*
X1328944Y819117*
X1328917Y819034*
X1328896Y818949*
X1328881Y818863*
X1328872Y818777*
X1328869Y818690*
X1328872Y818602*
X1328881Y818516*
X1328896Y818430*
X1328917Y818345*
X1328944Y818262*
X1328977Y818181*
X1329015Y818103*
X1329059Y818027*
X1329108Y817955*
X1329161Y817886*
X1329220Y817822*
X1329282Y817761*
X1329349Y817705*
X1329420Y817654*
X1329494Y817607*
X1329571Y817566*
X1329650Y817531*
X1329732Y817501*
X1329816Y817477*
X1329902Y817459*
X1329988Y817447*
X1330075Y817441*
X1330162*
X1330249Y817447*
X1330336Y817459*
X1330421Y817477*
X1330505Y817501*
X1330587Y817531*
X1330666Y817566*
X1330744Y817607*
X1330818Y817654*
X1330888Y817705*
X1330955Y817761*
X1331018Y817822*
X1331076Y817886*
X1331130Y817955*
X1331178Y818027*
X1331222Y818103*
X1331260Y818181*
X1331293Y818262*
X1331320Y818345*
X1331341Y818430*
X1331356Y818516*
X1331365Y818602*
X1331368Y818690*
X1312179Y731039D02*
D01*
X1312176Y731127*
X1312167Y731213*
X1312151Y731299*
X1312130Y731384*
X1312103Y731467*
X1312071Y731548*
X1312032Y731626*
X1311989Y731702*
X1311940Y731774*
X1311886Y731843*
X1311828Y731907*
X1311765Y731968*
X1311698Y732024*
X1311628Y732075*
X1311554Y732121*
X1311477Y732163*
X1311397Y732198*
X1311315Y732228*
X1311231Y732252*
X1311146Y732270*
X1311060Y732282*
X1310972Y732288*
X1310885*
X1310798Y732282*
X1310712Y732270*
X1310627Y732252*
X1310543Y732228*
X1310461Y732198*
X1310381Y732163*
X1310304Y732121*
X1310230Y732075*
X1310159Y732024*
X1310093Y731968*
X1310030Y731907*
X1309972Y731843*
X1309918Y731774*
X1309869Y731702*
X1309825Y731626*
X1309787Y731548*
X1309755Y731467*
X1309728Y731384*
X1309707Y731299*
X1309691Y731213*
X1309682Y731127*
X1309679Y731039*
X1309682Y730952*
X1309691Y730865*
X1309707Y730780*
X1309728Y730695*
X1309755Y730612*
X1309787Y730531*
X1309825Y730453*
X1309869Y730377*
X1309918Y730305*
X1309972Y730236*
X1310030Y730171*
X1310093Y730111*
X1310159Y730054*
X1310230Y730003*
X1310304Y729957*
X1310381Y729916*
X1310461Y729881*
X1310543Y729851*
X1310627Y729827*
X1310712Y729809*
X1310798Y729796*
X1310885Y729790*
X1310972*
X1311060Y729796*
X1311146Y729809*
X1311231Y729827*
X1311315Y729851*
X1311397Y729881*
X1311477Y729916*
X1311554Y729957*
X1311628Y730003*
X1311698Y730054*
X1311765Y730111*
X1311828Y730171*
X1311886Y730236*
X1311940Y730305*
X1311989Y730377*
X1312032Y730453*
X1312071Y730531*
X1312103Y730612*
X1312130Y730695*
X1312151Y730780*
X1312167Y730865*
X1312176Y730952*
X1312179Y731039*
G54D12*
X986790Y843429D02*
D01*
X988429Y843487*
X990060Y843658*
X991675Y843943*
X993267Y844340*
X994827Y844846*
X996348Y845461*
X997822Y846180*
X999243Y847000*
X1000602Y847917*
X1001895Y848927*
X1003114Y850025*
X1004253Y851205*
X1005308Y852461*
X1006272Y853788*
X1007141Y855179*
X1007911Y856627*
X1008578Y858126*
X1009139Y859667*
X1009591Y861244*
X1009932Y862849*
X1010161Y864473*
X1010275Y866109*
X1010290Y866929*
X963289D02*
D01*
X963347Y865290*
X963518Y863659*
X963803Y862043*
X964200Y860452*
X964706Y858892*
X965321Y857371*
X966040Y855897*
X966860Y854476*
X967777Y853116*
X968787Y851824*
X969885Y850605*
X971065Y849465*
X972321Y848411*
X973648Y847447*
X975039Y846578*
X976488Y845808*
X977986Y845140*
X979527Y844579*
X981104Y844127*
X982709Y843786*
X984333Y843558*
X985969Y843444*
X986790Y843429*
Y957430D02*
D01*
X985150Y957372*
X983519Y957201*
X981904Y956916*
X980312Y956519*
X978752Y956012*
X977231Y955398*
X975757Y954679*
X974336Y953859*
X972976Y952941*
X971684Y951932*
X970465Y950834*
X969325Y949654*
X968271Y948397*
X967307Y947071*
X966438Y945680*
X965668Y944231*
X965000Y942733*
X964440Y941191*
X963987Y939615*
X963646Y938010*
X963418Y936386*
X963304Y934749*
X963289Y933930*
X1010290D02*
D01*
X1010232Y935569*
X1010061Y937200*
X1009776Y938815*
X1009379Y940407*
X1008872Y941967*
X1008258Y943488*
X1007539Y944962*
X1006719Y946383*
X1005801Y947742*
X1004791Y949035*
X1003694Y950254*
X1002514Y951393*
X1001257Y952448*
X999930Y953412*
X998540Y954281*
X997091Y955051*
X995593Y955718*
X994051Y956279*
X992475Y956731*
X990870Y957073*
X989246Y957301*
X987609Y957415*
X986790Y957430*
X995918Y1007430D02*
D01*
X995875Y1008674*
X995745Y1009913*
X995528Y1011140*
X995227Y1012349*
X994842Y1013534*
X994375Y1014689*
X993829Y1015809*
X993206Y1016888*
X992509Y1017921*
X991742Y1018902*
X990909Y1019828*
X990013Y1020693*
X989058Y1021494*
X988050Y1022227*
X986994Y1022887*
X985894Y1023472*
X984756Y1023978*
X983585Y1024404*
X982387Y1024748*
X981169Y1025007*
X979935Y1025180*
X978692Y1025267*
X977447*
X976204Y1025180*
X974970Y1025007*
X973752Y1024748*
X972554Y1024404*
X971383Y1023978*
X970245Y1023472*
X969145Y1022887*
X968089Y1022227*
X967081Y1021494*
X966127Y1020693*
X965230Y1019828*
X964397Y1018902*
X963630Y1017921*
X962933Y1016888*
X962310Y1015809*
X961764Y1014689*
X961297Y1013534*
X960912Y1012349*
X960611Y1011140*
X960395Y1009913*
X960265Y1008674*
X960221Y1007430*
X960265Y1006184*
X960395Y1004945*
X960611Y1003719*
X960912Y1002510*
X961297Y1001325*
X961764Y1000170*
X962310Y999050*
X962933Y997971*
X963630Y996938*
X964397Y995957*
X965230Y995031*
X966127Y994165*
X967081Y993365*
X968089Y992632*
X969145Y991972*
X970245Y991387*
X971383Y990880*
X972554Y990454*
X973752Y990111*
X974970Y989852*
X976204Y989678*
X977447Y989592*
X978692*
X979935Y989678*
X981169Y989852*
X982387Y990111*
X983585Y990454*
X984756Y990880*
X985894Y991387*
X986994Y991972*
X988050Y992632*
X989058Y993365*
X990013Y994165*
X990909Y995031*
X991742Y995957*
X992509Y996938*
X993206Y997971*
X993829Y999050*
X994375Y1000170*
X994842Y1001325*
X995227Y1002510*
X995528Y1003719*
X995745Y1004945*
X995875Y1006184*
X995918Y1007430*
X996950Y814070D02*
D01*
X996888Y815841*
X996702Y817604*
X996394Y819350*
X995966Y821071*
X995418Y822757*
X994753Y824400*
X993976Y825994*
X993090Y827529*
X992098Y828999*
X991007Y830396*
X989820Y831714*
X988545Y832945*
X987187Y834085*
X985753Y835127*
X984250Y836066*
X982684Y836899*
X981064Y837620*
X979398Y838226*
X977694Y838715*
X975960Y839083*
X974204Y839330*
X972436Y839454*
X970663*
X968894Y839330*
X967139Y839083*
X965404Y838715*
X963700Y838226*
X962034Y837620*
X960415Y836899*
X958850Y836066*
X957346Y835127*
X955911Y834085*
X954553Y832945*
X953278Y831714*
X952092Y830396*
X951000Y828999*
X950009Y827529*
X949123Y825994*
X948345Y824400*
X947681Y822757*
X947133Y821071*
X946704Y819350*
X946397Y817604*
X946211Y815841*
X946150Y814070*
X946211Y812298*
X946397Y810534*
X946704Y808788*
X947133Y807068*
X947681Y805382*
X948345Y803738*
X949123Y802145*
X950009Y800610*
X951000Y799140*
X952092Y797743*
X953278Y796425*
X954553Y795193*
X955911Y794054*
X957346Y793012*
X958850Y792072*
X960415Y791240*
X962034Y790519*
X963700Y789913*
X965404Y789424*
X967139Y789055*
X968894Y788808*
X970663Y788685*
X972436*
X974204Y788808*
X975960Y789055*
X977694Y789424*
X979398Y789913*
X981064Y790519*
X982684Y791240*
X984250Y792072*
X985753Y793012*
X987187Y794054*
X988545Y795193*
X989820Y796425*
X991007Y797743*
X992098Y799140*
X993090Y800610*
X993976Y802145*
X994753Y803738*
X995418Y805382*
X995966Y807068*
X996394Y808788*
X996702Y810534*
X996888Y812298*
X996950Y814070*
X1177290Y756920D02*
D01*
X1177228Y758691*
X1177042Y760454*
X1176734Y762200*
X1176306Y763921*
X1175758Y765607*
X1175093Y767250*
X1174316Y768844*
X1173430Y770379*
X1172438Y771849*
X1171347Y773246*
X1170160Y774564*
X1168885Y775795*
X1167527Y776935*
X1166093Y777977*
X1164590Y778916*
X1163024Y779749*
X1161404Y780470*
X1159738Y781076*
X1158034Y781565*
X1156300Y781933*
X1154544Y782180*
X1152776Y782304*
X1151003*
X1149234Y782180*
X1147479Y781933*
X1145744Y781565*
X1144040Y781076*
X1142374Y780470*
X1140755Y779749*
X1139190Y778916*
X1137686Y777977*
X1136251Y776935*
X1134893Y775795*
X1133618Y774564*
X1132432Y773246*
X1131340Y771849*
X1130349Y770379*
X1129463Y768844*
X1128685Y767250*
X1128021Y765607*
X1127473Y763921*
X1127044Y762200*
X1126737Y760454*
X1126551Y758691*
X1126490Y756920*
X1126551Y755148*
X1126737Y753384*
X1127044Y751638*
X1127473Y749918*
X1128021Y748232*
X1128685Y746588*
X1129463Y744995*
X1130349Y743460*
X1131340Y741990*
X1132432Y740593*
X1133618Y739275*
X1134893Y738043*
X1136251Y736904*
X1137686Y735862*
X1139190Y734922*
X1140755Y734090*
X1142374Y733369*
X1144040Y732763*
X1145744Y732274*
X1147479Y731905*
X1149234Y731658*
X1151003Y731535*
X1152776*
X1154544Y731658*
X1156300Y731905*
X1158034Y732274*
X1159738Y732763*
X1161404Y733369*
X1163024Y734090*
X1164590Y734922*
X1166093Y735862*
X1167527Y736904*
X1168885Y738043*
X1170160Y739275*
X1171347Y740593*
X1172438Y741990*
X1173430Y743460*
X1174316Y744995*
X1175093Y746588*
X1175758Y748232*
X1176306Y749918*
X1176734Y751638*
X1177042Y753384*
X1177228Y755148*
X1177290Y756920*
X1301341Y627938D02*
Y703940D01*
Y627938D02*
X1311239D01*
X1301341Y703940D02*
X1345338D01*
X1336240Y627938D02*
X1345338D01*
X1323340Y637540D02*
X1336040D01*
X1323340Y624840D02*
X1336040Y637540D01*
X1310640D02*
X1323340Y624840D01*
X1310640Y637540D02*
X1323340D01*
X1345338Y627938D02*
Y703940D01*
X1250589Y628599D02*
Y704601D01*
Y628599D02*
X1260490D01*
X1250589Y704601D02*
X1294589D01*
X1285488Y628599D02*
X1294589D01*
X1272590Y638200D02*
X1285290D01*
X1272590Y625500D02*
X1285290Y638200D01*
X1259890D02*
X1272590Y625500D01*
X1259890Y638200D02*
X1272590D01*
X1294589Y628599D02*
Y704601D01*
X1132479Y628599D02*
Y704601D01*
Y628599D02*
X1142380D01*
X1132479Y704601D02*
X1176479D01*
X1167378Y628599D02*
X1176479D01*
X1154480Y638200D02*
X1167180D01*
X1154480Y625500D02*
X1167180Y638200D01*
X1141780D02*
X1154480Y625500D01*
X1141780Y638200D02*
X1154480D01*
X1176479Y628599D02*
Y704601D01*
X1065121Y629208D02*
Y705210D01*
Y629208D02*
X1075019D01*
X1065121Y705210D02*
X1109118D01*
X1100020Y629208D02*
X1109118D01*
X1087120Y638810D02*
X1099820D01*
X1087120Y626110D02*
X1099820Y638810D01*
X1074420D02*
X1087120Y626110D01*
X1074420Y638810D02*
X1087120D01*
X1109118Y629208D02*
Y705210D01*
X1014369Y628599D02*
Y704601D01*
Y628599D02*
X1024270D01*
X1014369Y704601D02*
X1058369D01*
X1049268Y628599D02*
X1058369D01*
X1036370Y638200D02*
X1049070D01*
X1036370Y625500D02*
X1049070Y638200D01*
X1023670D02*
X1036370Y625500D01*
X1023670Y638200D02*
X1036370D01*
X1058369Y628599D02*
Y704601D01*
X1183231Y629211D02*
Y705210D01*
Y629211D02*
X1193129D01*
X1183231Y705210D02*
X1227228D01*
X1218130Y629211D02*
X1227228D01*
X1205230Y638810D02*
X1217930D01*
X1205230Y626110D02*
X1217930Y638810D01*
X1192530D02*
X1205230Y626110D01*
X1192530Y638810D02*
X1205230D01*
X1227228Y629211D02*
Y705210D01*
X1010290Y866929D02*
Y900430D01*
X963289Y866929D02*
Y933930D01*
X1010290Y900430D02*
Y933930D01*
X1076332Y931443D02*
Y923112D01*
X1077998Y921445*
X1081331*
X1082997Y923112*
Y931443*
X1086330Y921445D02*
X1089662D01*
X1087996*
Y931443*
X1086330Y929777*
X1094740Y1008380D02*
X1084742D01*
Y1013378*
X1086408Y1015044*
X1089741*
X1091407Y1013378*
Y1008380*
Y1011712D02*
X1094740Y1015044D01*
X1084742Y1018377D02*
Y1025042D01*
X1086408*
X1093073Y1018377*
X1094740*
X1126490Y784860D02*
X1116492D01*
Y789858*
X1118158Y791524*
X1121491*
X1123157Y789858*
Y784860*
Y788192D02*
X1126490Y791524D01*
Y801522D02*
Y794857D01*
X1119825Y801522*
X1118158*
X1116492Y799856*
Y796523*
X1118158Y794857*
X1041714Y805891D02*
X1040048Y807557D01*
X1036716*
X1035050Y805891*
Y799226*
X1036716Y797560*
X1040048*
X1041714Y799226*
X1045047Y797560D02*
X1048379D01*
X1046713*
Y807557*
X1045047Y805891*
X1060041Y797560D02*
X1053376D01*
X1060041Y804224*
Y805891*
X1058374Y807557*
X1055044*
X1053376Y805891*
X1016000Y869518D02*
Y867851D01*
X1019332Y864519*
X1022664Y867851*
Y869518*
X1019332Y864519D02*
Y859520D01*
X1025997D02*
X1029329D01*
X1027663*
Y869518*
X1025997Y867851*
X1245743Y726440D02*
X1254074D01*
X1255740Y728106*
Y731438*
X1254074Y733104*
X1245743*
X1255740Y743102D02*
Y736437D01*
X1249075Y743102*
X1247409*
X1245743Y741436*
Y738103*
X1247409Y736437*
X1035050Y811530D02*
Y821527D01*
X1040048*
X1041714Y819861*
Y816528*
X1040048Y814862*
X1035050*
X1038382D02*
X1041714Y811530D01*
X1045047Y813196D02*
X1046713Y811530D01*
X1050046*
X1051712Y813196*
Y819861*
X1050046Y821527*
X1046713*
X1045047Y819861*
Y818194*
X1046713Y816528*
X1051712*
X1062990Y1007110D02*
X1052992D01*
Y1012108*
X1054658Y1013774*
X1057991*
X1059657Y1012108*
Y1007110*
Y1010442D02*
X1062990Y1013774D01*
X1054658Y1017107D02*
X1052992Y1018773D01*
Y1022106*
X1054658Y1023772*
X1056325*
X1057991Y1022106*
X1059657Y1023772*
X1061323*
X1062990Y1022106*
Y1018773*
X1061323Y1017107*
X1059657*
X1057991Y1018773*
X1056325Y1017107*
X1054658*
X1057991Y1018773D02*
Y1022106D01*
X1017270Y930910D02*
Y940907D01*
X1022268*
X1023934Y939241*
Y935908*
X1022268Y934242*
X1017270*
X1020602D02*
X1023934Y930910D01*
X1033932Y940907D02*
X1030599Y939241D01*
X1027267Y935908*
Y932576*
X1028933Y930910*
X1032266*
X1033932Y932576*
Y934242*
X1032266Y935908*
X1027267*
X1263650Y853440D02*
Y863437D01*
X1268648*
X1270314Y861771*
Y858438*
X1268648Y856772*
X1263650*
X1266982D02*
X1270314Y853440D01*
X1280312Y863437D02*
X1273647D01*
Y858438*
X1276979Y860104*
X1278646*
X1280312Y858438*
Y855106*
X1278646Y853440*
X1275313*
X1273647Y855106*
X1263650Y839470D02*
Y849467D01*
X1268648*
X1270314Y847801*
Y844468*
X1268648Y842802*
X1263650*
X1266982D02*
X1270314Y839470D01*
X1278646D02*
Y849467D01*
X1273647Y844468*
X1280312*
X1263650Y826770D02*
Y836767D01*
X1268648*
X1270314Y835101*
Y831768*
X1268648Y830102*
X1263650*
X1266982D02*
X1270314Y826770D01*
X1273647Y835101D02*
X1275313Y836767D01*
X1278646*
X1280312Y835101*
Y833434*
X1278646Y831768*
X1276979*
X1278646*
X1280312Y830102*
Y828436*
X1278646Y826770*
X1275313*
X1273647Y828436*
X1143000Y786130D02*
X1133002D01*
Y791128*
X1134668Y792794*
X1138001*
X1139667Y791128*
Y786130*
Y789462D02*
X1143000Y792794D01*
Y796127D02*
Y799459D01*
Y797793*
X1133002*
X1134668Y796127*
X1375572Y681990D02*
X1383903D01*
X1385570Y683656*
Y686988*
X1383903Y688654*
X1375572*
X1385570Y691987D02*
X1378905D01*
X1375572Y695319*
X1378905Y698652*
X1385570*
X1380571*
Y691987*
X1385570Y701984D02*
X1375572D01*
Y706981*
X1377238Y708647*
X1380571*
X1382237Y706981*
Y701984*
Y705314D02*
X1385570Y708647D01*
X1375572Y711979D02*
Y718644D01*
Y715312*
X1385570*
Y721977D02*
Y725309D01*
Y723643*
X1375572*
X1377238Y721977*
X1025204Y718261D02*
X1023538Y719927D01*
X1020206*
X1018540Y718261*
Y711596*
X1020206Y709930*
X1023538*
X1025204Y711596*
Y714928*
X1021872*
X1028537Y709930D02*
Y719927D01*
X1035202Y709930*
Y719927*
X1038534D02*
Y709930D01*
X1043531*
X1045197Y711596*
Y718261*
X1043531Y719927*
X1038534*
X1078544Y709930D02*
X1071880D01*
X1078544Y716594*
Y718261*
X1076878Y719927*
X1073546*
X1071880Y718261*
X1086876Y709930D02*
Y719927D01*
X1081877Y714928*
X1088542*
X1091874Y719927D02*
Y713262D01*
X1095204Y709930*
X1098537Y713262*
Y719927*
X1148394Y719531D02*
X1146728Y721197D01*
X1143396*
X1141730Y719531*
Y712866*
X1143396Y711200*
X1146728*
X1148394Y712866*
Y716198*
X1145062*
X1151727Y711200D02*
Y721197D01*
X1158392Y711200*
Y721197*
X1161724D02*
Y711200D01*
X1166721*
X1168387Y712866*
Y719531*
X1166721Y721197*
X1161724*
X1199194Y709930D02*
X1192530D01*
X1199194Y716594*
Y718261*
X1197528Y719927*
X1194196*
X1192530Y718261*
X1207526Y709930D02*
Y719927D01*
X1202527Y714928*
X1209192*
X1212524Y719927D02*
Y713262D01*
X1215854Y709930*
X1219187Y713262*
Y719927*
X1265234Y718261D02*
X1263568Y719927D01*
X1260236*
X1258570Y718261*
Y711596*
X1260236Y709930*
X1263568*
X1265234Y711596*
Y714928*
X1261902*
X1268567Y709930D02*
Y719927D01*
X1275232Y709930*
Y719927*
X1278562D02*
Y709930D01*
X1283561*
X1285227Y711596*
Y718261*
X1283561Y719927*
X1278562*
X1316034Y709930D02*
X1309370D01*
X1316034Y716594*
Y718261*
X1314368Y719927*
X1311036*
X1309370Y718261*
X1324366Y709930D02*
Y719927D01*
X1319367Y714928*
X1326032*
X1329364Y719927D02*
Y713262D01*
X1332694Y709930*
X1336027Y713262*
Y719927*
X982421Y774385D02*
X984087Y776051D01*
Y779383*
X982421Y781050*
X980754*
X979088Y779383*
Y776051*
X977422Y774385*
X975756*
X974090Y776051*
Y779383*
X975756Y781050*
X982421Y769386D02*
X980754D01*
Y771052*
Y767720*
Y769386*
X975756*
X974090Y767720*
Y757725D02*
Y761055D01*
X975756Y762723*
X979088*
X980754Y761055*
Y757725*
X979088Y756058*
X977422*
Y762723*
X970757Y752726D02*
X980754D01*
Y747727*
X979088Y746061*
X975756*
X974090Y747727*
Y752726*
X984087Y742729D02*
X974090D01*
Y737730*
X975756Y736064*
X977422*
X979088Y737730*
Y742729*
Y737730*
X980754Y736064*
X982421*
X984087Y737730*
Y742729*
X1211894Y826211D02*
X1210228Y827877D01*
X1206896*
X1205230Y826211*
Y824544*
X1206896Y822878*
X1210228*
X1211894Y821212*
Y819546*
X1210228Y817880*
X1206896*
X1205230Y819546*
X1216893Y826211D02*
Y824544D01*
X1215227*
X1218559*
X1216893*
Y819546*
X1218559Y817880*
X1228554D02*
X1225224D01*
X1223556Y819546*
Y822878*
X1225224Y824544*
X1228554*
X1230221Y822878*
Y821212*
X1223556*
X1233553Y814547D02*
Y824544D01*
X1238552*
X1240218Y822878*
Y819546*
X1238552Y817880*
X1233553*
X1243550D02*
Y824544D01*
X1246883Y827877*
X1250215Y824544*
Y817880*
Y822878*
X1243550*
X1084564Y1039022D02*
X1091229D01*
Y1049020*
X1084564*
X1091229Y1044021D02*
X1087897D01*
X1081232Y1049020D02*
Y1042355D01*
X1076233*
X1074569Y1044021*
Y1049020*
X1064572Y1039022D02*
Y1049020D01*
X1069571*
X1071237Y1047353*
Y1044021*
X1069571Y1042355*
X1064572*
X1054574Y1040688D02*
X1056241Y1039022D01*
X1059573*
X1061239Y1040688*
Y1042355*
X1059573Y1044021*
X1056241*
X1054574Y1045687*
Y1047353*
X1056241Y1049020*
X1059573*
X1061239Y1047353*
X1049576Y1040688D02*
Y1042355D01*
X1051242*
X1047910*
X1049576*
Y1047353*
X1047910Y1049020*
X1041245D02*
X1037915D01*
X1036246Y1047353*
Y1044021*
X1037915Y1042355*
X1041245*
X1042911Y1044021*
Y1047353*
X1041245Y1049020*
X1032916Y1052352D02*
Y1042355D01*
X1027917*
X1026251Y1044021*
Y1047353*
X1027917Y1049020*
X1032916*
X1022918Y1039022D02*
Y1049020D01*
X1017920*
X1016254Y1047353*
Y1040688*
X1017920Y1039022*
X1022918*
X1173464Y1037752D02*
X1180129D01*
Y1047750*
X1173464*
X1180129Y1042751D02*
X1176797D01*
X1170132Y1047750D02*
Y1041085D01*
X1165133*
X1163469Y1042751*
Y1047750*
X1153472Y1037752D02*
Y1047750D01*
X1158471*
X1160137Y1046083*
Y1042751*
X1158471Y1041085*
X1153472*
X1143474Y1039418D02*
X1145141Y1037752D01*
X1148473*
X1150139Y1039418*
Y1041085*
X1148473Y1042751*
X1145141*
X1143474Y1044417*
Y1046083*
X1145141Y1047750*
X1148473*
X1150139Y1046083*
X1138476Y1039418D02*
Y1041085D01*
X1140142*
X1136810*
X1138476*
Y1046083*
X1136810Y1047750*
X1130145D02*
X1126815D01*
X1125148Y1046083*
Y1042751*
X1126815Y1041085*
X1130145*
X1131811Y1042751*
Y1046083*
X1130145Y1047750*
X1121816Y1051082D02*
Y1041085D01*
X1116817*
X1115151Y1042751*
Y1046083*
X1116817Y1047750*
X1121816*
X1105154Y1039418D02*
X1106820Y1037752D01*
X1110152*
X1111818Y1039418*
Y1046083*
X1110152Y1047750*
X1106820*
X1105154Y1046083*
X1262364Y1037752D02*
X1269029D01*
Y1047750*
X1262364*
X1269029Y1042751D02*
X1265697D01*
X1259032Y1047750D02*
Y1041085D01*
X1254036*
X1252369Y1042751*
Y1047750*
X1242372Y1037752D02*
Y1047750D01*
X1247371*
X1249037Y1046083*
Y1042751*
X1247371Y1041085*
X1242372*
X1232374Y1039418D02*
X1234041Y1037752D01*
X1237373*
X1239039Y1039418*
Y1041085*
X1237373Y1042751*
X1234041*
X1232374Y1044417*
Y1046083*
X1234041Y1047750*
X1237373*
X1239039Y1046083*
X1227376Y1039418D02*
Y1041085D01*
X1229042*
X1225710*
X1227376*
Y1046083*
X1225710Y1047750*
X1219045D02*
X1215712D01*
X1214048Y1046083*
Y1042751*
X1215712Y1041085*
X1219045*
X1220711Y1042751*
Y1046083*
X1219045Y1047750*
X1210716Y1051082D02*
Y1041085D01*
X1205717*
X1204051Y1042751*
Y1046083*
X1205717Y1047750*
X1210716*
X1200718Y1037752D02*
Y1047750D01*
X1195720*
X1194054Y1046083*
Y1044417*
X1195720Y1042751*
X1200718*
X1195720*
X1194054Y1041085*
Y1039418*
X1195720Y1037752*
X1200718*
X1351264D02*
X1357929D01*
Y1047750*
X1351264*
X1357929Y1042751D02*
X1354597D01*
X1347932Y1047750D02*
Y1041085D01*
X1342936*
X1341269Y1042751*
Y1047750*
X1331272Y1037752D02*
Y1047750D01*
X1336271*
X1337937Y1046083*
Y1042751*
X1336271Y1041085*
X1331272*
X1321274Y1039418D02*
X1322941Y1037752D01*
X1326273*
X1327939Y1039418*
Y1041085*
X1326273Y1042751*
X1322941*
X1321274Y1044417*
Y1046083*
X1322941Y1047750*
X1326273*
X1327939Y1046083*
X1316276Y1039418D02*
Y1041085D01*
X1317942*
X1314610*
X1316276*
Y1046083*
X1314610Y1047750*
X1307945D02*
X1304612D01*
X1302948Y1046083*
Y1042751*
X1304612Y1041085*
X1307945*
X1309611Y1042751*
Y1046083*
X1307945Y1047750*
X1299616Y1051082D02*
Y1041085D01*
X1294617*
X1292951Y1042751*
Y1046083*
X1294617Y1047750*
X1299616*
X1289618D02*
Y1041085D01*
X1286286Y1037752*
X1282954Y1041085*
Y1047750*
Y1042751*
X1289618*
X1374698Y951544D02*
X1373032Y949878D01*
Y946546*
X1374698Y944880*
X1376365*
X1378031Y946546*
Y949878*
X1379697Y951544*
X1381363*
X1383030Y949878*
Y946546*
X1381363Y944880*
X1373032Y954877D02*
X1383030D01*
X1379697Y958209*
X1383030Y961542*
X1373032*
Y964874D02*
X1383030D01*
Y969871*
X1381363Y971537*
X1374698*
X1373032Y969871*
Y964874*
X1100378Y1015044D02*
X1098712Y1013378D01*
Y1010046*
X1100378Y1008380*
X1107043*
X1108710Y1010046*
Y1013378*
X1107043Y1015044*
X1108710Y1018377D02*
Y1021709D01*
Y1020043*
X1098712*
X1100378Y1018377*
X1098712Y1033371D02*
X1100378Y1030038D01*
X1103711Y1026706*
X1107043*
X1108710Y1028374*
Y1031704*
X1107043Y1033371*
X1105377*
X1103711Y1031704*
Y1026706*
X1120698Y1015044D02*
X1119032Y1013378D01*
Y1010046*
X1120698Y1008380*
X1127363*
X1129030Y1010046*
Y1013378*
X1127363Y1015044*
X1129030Y1018377D02*
Y1021709D01*
Y1020043*
X1119032*
X1120698Y1018377*
X1119032Y1033371D02*
Y1026706D01*
X1124031*
X1122365Y1030038*
Y1031704*
X1124031Y1033371*
X1127363*
X1129030Y1031704*
Y1028374*
X1127363Y1026706*
X1137208Y1015044D02*
X1135542Y1013378D01*
Y1010046*
X1137208Y1008380*
X1143873*
X1145540Y1010046*
Y1013378*
X1143873Y1015044*
X1145540Y1018377D02*
Y1021709D01*
Y1020043*
X1135542*
X1137208Y1018377*
X1145540Y1031704D02*
X1135542D01*
X1140541Y1026706*
Y1033371*
X1153718Y1015044D02*
X1152052Y1013378D01*
Y1010046*
X1153718Y1008380*
X1160383*
X1162050Y1010046*
Y1013378*
X1160383Y1015044*
X1162050Y1018377D02*
Y1021709D01*
Y1020043*
X1152052*
X1153718Y1018377*
Y1026706D02*
X1152052Y1028374D01*
Y1031704*
X1153718Y1033371*
X1155385*
X1157051Y1031704*
Y1030038*
Y1031704*
X1158717Y1033371*
X1160383*
X1162050Y1031704*
Y1028374*
X1160383Y1026706*
X1283258Y1016314D02*
X1281592Y1014648D01*
Y1011316*
X1283258Y1009650*
X1289923*
X1291590Y1011316*
Y1014648*
X1289923Y1016314*
X1291590Y1019647D02*
Y1022979D01*
Y1021313*
X1281592*
X1283258Y1019647*
X1291590Y1027976D02*
Y1031308D01*
Y1029644*
X1281592*
X1283258Y1027976*
X1269288Y1015044D02*
X1267622Y1013378D01*
Y1010046*
X1269288Y1008380*
X1275953*
X1277620Y1010046*
Y1013378*
X1275953Y1015044*
X1277620Y1018377D02*
Y1021709D01*
Y1020043*
X1267622*
X1269288Y1018377*
Y1026706D02*
X1267622Y1028374D01*
Y1031704*
X1269288Y1033371*
X1275953*
X1277620Y1031704*
Y1028374*
X1275953Y1026706*
X1269288*
X1254048Y1015044D02*
X1252382Y1013378D01*
Y1010046*
X1254048Y1008380*
X1260713*
X1262380Y1010046*
Y1013378*
X1260713Y1015044*
Y1018377D02*
X1262380Y1020043D01*
Y1023376*
X1260713Y1025042*
X1254048*
X1252382Y1023376*
Y1020043*
X1254048Y1018377*
X1255715*
X1257381Y1020043*
Y1025042*
X1238808Y1015044D02*
X1237142Y1013378D01*
Y1010046*
X1238808Y1008380*
X1245473*
X1247140Y1010046*
Y1013378*
X1245473Y1015044*
X1238808Y1018377D02*
X1237142Y1020043D01*
Y1023376*
X1238808Y1025042*
X1240475*
X1242141Y1023376*
X1243807Y1025042*
X1245473*
X1247140Y1023376*
Y1020043*
X1245473Y1018377*
X1243807*
X1242141Y1020043*
X1240475Y1018377*
X1238808*
X1242141Y1020043D02*
Y1023376D01*
X1223568Y1015044D02*
X1221902Y1013378D01*
Y1010046*
X1223568Y1008380*
X1230233*
X1231900Y1010046*
Y1013378*
X1230233Y1015044*
X1221902Y1018377D02*
Y1025042D01*
X1223568*
X1230233Y1018377*
X1231900*
X1208328Y1015044D02*
X1206662Y1013378D01*
Y1010046*
X1208328Y1008380*
X1214993*
X1216660Y1010046*
Y1013378*
X1214993Y1015044*
X1206662Y1025042D02*
X1208328Y1021709D01*
X1211661Y1018377*
X1214993*
X1216660Y1020043*
Y1023376*
X1214993Y1025042*
X1213327*
X1211661Y1023376*
Y1018377*
X1191818Y1015044D02*
X1190152Y1013378D01*
Y1010046*
X1191818Y1008380*
X1198483*
X1200150Y1010046*
Y1013378*
X1198483Y1015044*
X1190152Y1025042D02*
Y1018377D01*
X1195151*
X1193485Y1021709*
Y1023376*
X1195151Y1025042*
X1198483*
X1200150Y1023376*
Y1020043*
X1198483Y1018377*
X1036878Y1013774D02*
X1035212Y1012108D01*
Y1008776*
X1036878Y1007110*
X1043543*
X1045210Y1008776*
Y1012108*
X1043543Y1013774*
X1045210Y1022106D02*
X1035212D01*
X1040211Y1017107*
Y1023772*
X947978Y860104D02*
X946312Y858438D01*
Y855106*
X947978Y853440*
X954643*
X956310Y855106*
Y858438*
X954643Y860104*
X947978Y863437D02*
X946312Y865103D01*
Y868436*
X947978Y870102*
X949645*
X951311Y868436*
Y866769*
Y868436*
X952977Y870102*
X954643*
X956310Y868436*
Y865103*
X954643Y863437*
X947978Y938844D02*
X946312Y937178D01*
Y933846*
X947978Y932180*
X954643*
X956310Y933846*
Y937178*
X954643Y938844*
X956310Y948842D02*
Y942177D01*
X949645Y948842*
X947978*
X946312Y947176*
Y943843*
X947978Y942177*
X1200464Y795731D02*
X1198798Y797397D01*
X1195466*
X1193800Y795731*
Y789066*
X1195466Y787400*
X1198798*
X1200464Y789066*
X1203797Y787400D02*
X1207129D01*
X1205463*
Y797397*
X1203797Y795731*
G54D13*
X1066192Y861214D02*
X1149195D01*
X1066192Y944217D02*
X1149195D01*
Y861214D02*
Y944217D01*
X1066192Y861214D02*
Y944217D01*
X1281831Y1113660D02*
X1314429D01*
Y1107660D02*
Y1113660D01*
Y1107660D02*
X1324429D01*
Y1113660*
X1357429*
X1281831Y1053660D02*
X1357228D01*
Y1112659*
X1281831Y1053660D02*
Y1112659D01*
X1106571Y1113660D02*
X1139169D01*
Y1107660D02*
Y1113660D01*
Y1107660D02*
X1149169D01*
Y1113660*
X1182169*
X1106571Y1053660D02*
X1181971D01*
Y1112659*
X1106571Y1053660D02*
Y1112659D01*
X1390650Y906780D02*
X1416050D01*
X1390650Y1059180D02*
X1416050D01*
Y906780D02*
Y1059180D01*
X1390650Y906780D02*
Y1059180D01*
X1336370Y813188D02*
Y821189D01*
Y866188D02*
Y874189D01*
X1419369Y794189D02*
X1432369D01*
X1364371D02*
X1386370D01*
X1364371Y893188D02*
X1386370D01*
X1419369D02*
X1432369D01*
Y794189D02*
Y893188D01*
X1391920Y674370D02*
X1417320D01*
X1391920D02*
Y775970D01*
X1417320Y674370D02*
Y775970D01*
X1391920D02*
X1417320D01*
X1282280Y993140D02*
X1293279D01*
X1294429Y731039D02*
Y798040D01*
X1268430Y731039D02*
Y798040D01*
Y731039D02*
X1294429D01*
X1268430Y798040D02*
X1294429D01*
X1219459Y748919D02*
Y764921D01*
X1188460Y748919D02*
Y764921D01*
X1194198Y1113660D02*
X1226799D01*
Y1107660D02*
Y1113660D01*
Y1107660D02*
X1236799D01*
Y1113660*
X1269799*
X1194198Y1053660D02*
X1269601D01*
Y1112659*
X1194198Y1053660D02*
Y1112659D01*
X987290Y784730D02*
X1020290D01*
Y778730D02*
Y784730D01*
Y778730D02*
X1030290D01*
Y784730*
X1070289*
Y778730D02*
Y784730D01*
Y778730D02*
X1080289D01*
Y784730*
X1113289*
X987491Y724730D02*
X1113088D01*
Y783729*
X987491Y724730D02*
Y783729D01*
X1201549Y834890D02*
Y867890D01*
X1207549*
Y877890*
X1201549D02*
X1207549D01*
X1201549D02*
Y917889D01*
X1207549*
Y927889*
X1201549D02*
X1207549D01*
X1201549D02*
Y960889D01*
X1261549Y835091D02*
Y960688D01*
X1202550D02*
X1261549D01*
X1202550Y835091D02*
X1261549D01*
X1016398Y1113660D02*
X1048999D01*
Y1107660D02*
Y1113660D01*
Y1107660D02*
X1058999D01*
Y1113660*
X1091999*
X1016398Y1053660D02*
X1091801D01*
Y1112659*
X1016398Y1053660D02*
Y1112659D01*
G54D14*
X946150Y977646D02*
X1010920D01*
X946150D02*
Y1042670D01*
X1010920Y977646D02*
Y1042670D01*
X946150D02*
X1010920D01*
X985309Y1008669D02*
X1005309D01*
X969309Y1013670D02*
X987310D01*
X952309Y1008669D02*
X972309D01*
X978308Y1013670D02*
Y1019670D01*
X971550Y831850D02*
X974090D01*
X971550Y829310D02*
Y831850D01*
X963930D02*
X966470D01*
X963930Y829310D02*
Y831850D01*
X971550D02*
X976630Y826770D01*
X974090Y824230D02*
X976630Y826770D01*
X974090Y824230D02*
X976630Y821690D01*
X963930Y831850D02*
X969010Y826770D01*
X966470Y824230D02*
X969010Y826770D01*
X966470Y824230D02*
X971550Y819150D01*
X958850Y801370D02*
X986790D01*
X966470D02*
X976630Y811530D01*
Y791210D02*
Y811530D01*
Y805670D02*
Y806450D01*
X966470Y801370D02*
X976630Y791210D01*
X966470D02*
Y811530D01*
X1151890Y774700D02*
X1154430D01*
X1151890Y772160D02*
Y774700D01*
X1144270D02*
X1146810D01*
X1144270Y772160D02*
Y774700D01*
X1151890D02*
X1156970Y769620D01*
X1154430Y767080D02*
X1156970Y769620D01*
X1154430Y767080D02*
X1156970Y764540D01*
X1144270Y774700D02*
X1149350Y769620D01*
X1146810Y767080D02*
X1149350Y769620D01*
X1146810Y767080D02*
X1151890Y762000D01*
X1139190Y744220D02*
X1167130D01*
X1146810D02*
X1156970Y754380D01*
Y734060D02*
Y754380D01*
Y748520D02*
Y749300D01*
X1146810Y744220D02*
X1156970Y734060D01*
X1146810D02*
Y754380D01*
G54D15*
X971788Y796051D02*
Y806688D01*
X970280Y805180D02*
X971788Y806688D01*
X970280Y798380D02*
Y805180D01*
X968756Y799904D02*
X970280Y798380D01*
X968756Y799904D02*
Y801624D01*
X976122Y808990*
Y794258D02*
Y808990D01*
X975664Y793800D02*
X976122Y794258D01*
X975664Y793800D02*
Y796086D01*
X973775Y794197D02*
X975664Y796086D01*
X973775Y794197D02*
Y795721D01*
X975238Y794258*
Y808106*
X970280Y803148D02*
X975238Y808106D01*
X970280Y798380D02*
Y803148D01*
Y798380D02*
X971788Y799889D01*
Y801639*
X970280Y803148D02*
X971788Y801639D01*
X970280Y801397D02*
Y803148D01*
Y799830D02*
Y801397D01*
X969264Y800846D02*
X970280Y799830D01*
X969264Y800846D02*
X971042D01*
X970663Y800470D02*
X971042Y800846D01*
X1152128Y738901D02*
Y749538D01*
X1150620Y748030D02*
X1152128Y749538D01*
X1150620Y741230D02*
Y748030D01*
X1149096Y742754D02*
X1150620Y741230D01*
X1149096Y742754D02*
Y744474D01*
X1156462Y751840*
Y737108D02*
Y751840D01*
X1156004Y736650D02*
X1156462Y737108D01*
X1156004Y736650D02*
Y738936D01*
X1154115Y737047D02*
X1156004Y738936D01*
X1154115Y737047D02*
Y738571D01*
X1155578Y737108*
Y750956*
X1150620Y745998D02*
X1155578Y750956D01*
X1150620Y741230D02*
Y745998D01*
Y741230D02*
X1152128Y742739D01*
Y744489*
X1150620Y745998D02*
X1152128Y744489D01*
X1150620Y744247D02*
Y745998D01*
Y742680D02*
Y744247D01*
X1149604Y743696D02*
X1150620Y742680D01*
X1149604Y743696D02*
X1151382D01*
X1151003Y743320D02*
X1151382Y743696D01*
G54D16*
X974496Y801522D03*
X1154836Y744372D03*
M02*