%FSLAX24Y24*%
%MOMM*%
%SFA1B1*%

%IPPOS*%
%ADD17O,0.299974X2.100072*%
%ADD18O,2.100072X0.299974*%
%ADD19R,0.899922X0.800100*%
%ADD20R,0.800100X0.899922*%
%ADD21R,1.299972X0.999998*%
%ADD22R,2.700020X0.999998*%
%ADD23R,2.700020X3.299968*%
%ADD24R,3.299968X1.400048*%
%LNpcb_cloud_controller-1*%
%LPD*%
G54D17*
X1070193Y958715D03*
X1075194D03*
X1080193D03*
X1085194D03*
X1090193D03*
X1095194D03*
X1100193D03*
X1105194D03*
X1110193D03*
X1115194D03*
X1120193D03*
X1125194D03*
X1130193D03*
X1135194D03*
X1140193D03*
X1145194D03*
Y846716D03*
X1140193D03*
X1135194D03*
X1130193D03*
X1125194D03*
X1120193D03*
X1115194D03*
X1110193D03*
X1105194D03*
X1100193D03*
X1095194D03*
X1090193D03*
X1085194D03*
X1080193D03*
X1075194D03*
X1070193D03*
G54D18*
X1163693Y940216D03*
Y935215D03*
Y930216D03*
Y925215D03*
Y920216D03*
Y915215D03*
Y910216D03*
Y905215D03*
Y900216D03*
Y895215D03*
Y890216D03*
Y885215D03*
Y880216D03*
Y875215D03*
Y870216D03*
Y865215D03*
X1051694D03*
Y870216D03*
Y875215D03*
Y880216D03*
Y885215D03*
Y890216D03*
Y895215D03*
Y900216D03*
Y905215D03*
Y910216D03*
Y915215D03*
Y920216D03*
Y925215D03*
Y930216D03*
Y935215D03*
Y940216D03*
G54D19*
X1121410Y809609D03*
Y823610D03*
X1089660Y986139D03*
Y1000140D03*
X951230Y921400D03*
Y907399D03*
X1022350Y908669D03*
Y922670D03*
X951230Y894730D03*
Y880729D03*
X1059180Y984869D03*
Y998870D03*
X1041400Y984869D03*
Y998870D03*
X1271270Y1000140D03*
Y986139D03*
X1256030Y1000140D03*
Y986139D03*
X1240790Y1000140D03*
Y986139D03*
X1226820Y1000140D03*
Y986139D03*
X1211580Y1000140D03*
Y986139D03*
X1196340Y1000140D03*
Y986139D03*
X1137920Y809609D03*
Y823610D03*
X1140460Y1000140D03*
Y986139D03*
X1156970Y1000140D03*
Y986139D03*
X1103630Y1000140D03*
Y986139D03*
X1123950Y1000140D03*
Y986139D03*
G54D20*
X1024270Y801370D03*
X1010269D03*
X1288399Y830580D03*
X1302400D03*
X1288399Y844550D03*
X1302400D03*
X1288369Y858469D03*
X1302369D03*
X1024270Y815340D03*
X1010269D03*
G54D21*
X1287780Y985139D03*
Y1001141D03*
G54D22*
X1310929Y741540D03*
Y764540D03*
Y787539D03*
G54D23*
X1251930Y764540D03*
G54D24*
X1203960Y775919D03*
Y737920D03*
M02*