%FSLAX24Y24*%
%MOMM*%
%SFA1B1*%

%IPPOS*%
%AMD56*
4,1,8,0.701040,0.292100,0.292100,0.701040,-0.292100,0.701040,-0.701040,0.292100,-0.701040,-0.292100,-0.292100,-0.701040,0.292100,-0.701040,0.701040,-0.292100,0.701040,0.292100,0.0*
%
%ADD13C,0.199898*%
%ADD17O,0.299974X2.100072*%
%ADD18O,2.100072X0.299974*%
%ADD19R,0.899922X0.800100*%
%ADD20R,0.800100X0.899922*%
%ADD21R,1.299972X0.999998*%
%ADD22R,2.700020X0.999998*%
%ADD23R,2.700020X3.299968*%
%ADD24R,3.299968X1.400048*%
%ADD46R,1.999996X1.999996*%
%ADD47R,2.400046X0.499872*%
%ADD48C,0.299974*%
%ADD49C,0.499872*%
%ADD50C,1.999996*%
%ADD51C,2.500122*%
%ADD52C,1.524000*%
%ADD53R,1.500124X1.500124*%
%ADD54C,1.500124*%
%ADD55C,1.400048*%
G04~CAMADD=56~4~0.0~0.0~551.2~551.2~0.0~161.4~0~0.0~0.0~0.0~0.0~0~0.0~0.0~0.0~0.0~0~0.0~0.0~0.0~315.0~551.2~551.2*
%ADD56D56*%
%ADD57C,0.599948*%
%ADD58C,2.032000*%
%ADD59C,1.574800*%
%ADD60C,0.700024*%
%ADD61C,4.500118*%
%LNpcb_cloud_controller-1*%
%LPD*%
G36*
X1436370Y619760D02*
X939800D01*
Y1117600*
X1436370*
Y619760*
G37*
%LNpcb_cloud_controller-2*%
%LPC*%
G36*
X1405890Y1114277D02*
X1401086Y1113805D01*
X1396469Y1112405*
X1392212Y1110129*
X1388480Y1107066*
X1385420Y1103337*
X1383144Y1099080*
X1381744Y1094463*
X1381272Y1089660*
X1381744Y1084856*
X1383144Y1080239*
X1385420Y1075982*
X1388480Y1072253*
X1392212Y1069190*
X1396469Y1066914*
X1398470Y1066307*
X1398282Y1065037*
X1368419*
X1341996Y1091463*
X1341902Y1092172*
X1340932Y1094511*
X1339390Y1096520*
X1337381Y1098062*
X1335041Y1099032*
X1334333Y1099126*
X1321503Y1111953*
X1320015Y1112949*
X1318260Y1113297*
X1263650*
X1176020*
X1086149*
X1084394Y1112949*
X1082906Y1111953*
X1069873Y1098923*
X1069611Y1099032*
X1067099Y1099362*
X1064587Y1099032*
X1062248Y1098062*
X1060239Y1096520*
X1058697Y1094511*
X1057727Y1092172*
X1057396Y1089660*
X1057727Y1087147*
X1058697Y1084808*
X1060239Y1082799*
X1062207Y1081288*
X1062220Y1081163*
X1061918Y1080018*
X1054097*
X1049756Y1084359*
X1050102Y1084808*
X1051072Y1087147*
X1051402Y1089660*
X1051072Y1092172*
X1050102Y1094511*
X1048560Y1096520*
X1046551Y1098062*
X1044211Y1099032*
X1041699Y1099362*
X1039187Y1099032*
X1036848Y1098062*
X1034839Y1096520*
X1033297Y1094511*
X1032327Y1092172*
X1031996Y1089660*
X1032327Y1087147*
X1033297Y1084808*
X1034839Y1082799*
X1036848Y1081257*
X1039187Y1080287*
X1041699Y1079957*
X1044211Y1080287*
X1044895Y1080569*
X1050665Y1074795*
X1050668*
X1051659Y1074132*
X1052830Y1073901*
X1096012*
X1108191Y1061722*
Y1035969*
X1106921Y1035583*
X1106324Y1036474*
X1104506Y1037691*
X1102360Y1038118*
X1100213Y1037691*
X1098395Y1036474*
X1097788Y1035568*
X1075690*
X1074519Y1035337*
X1073525Y1034671*
X1048125Y1009274*
X1047462Y1008280*
X1047231Y1007110*
Y1005410*
X1042670*
Y998870*
Y992329*
X1047231*
Y990869*
X1034900*
Y987927*
X1033157*
X1004326Y1016759*
Y1030808*
X1004443Y1030823*
X1007399Y1032047*
X1009939Y1033998*
X1011890Y1036538*
X1013114Y1039495*
X1013533Y1042670*
X1013114Y1045845*
X1011890Y1048801*
X1009939Y1051341*
X1007399Y1053292*
X1004443Y1054516*
X1001268Y1054935*
X998093Y1054516*
X995136Y1053292*
X992596Y1051341*
X990645Y1048801*
X989421Y1045845*
X989002Y1042670*
X989421Y1039495*
X990645Y1036538*
X992596Y1033998*
X995136Y1032047*
X998093Y1030823*
X998209Y1030808*
Y1015492*
X998440Y1014321*
X999106Y1013330*
X1029728Y982708*
X1030719Y982042*
X1031890Y981811*
X1034900*
Y978870*
X1047899*
Y981811*
X1052680*
Y978870*
X1058661*
Y953262*
X1057755Y952654*
X1056538Y950836*
X1056111Y948690*
X1056538Y946543*
X1057534Y945055*
X1057048Y943785*
X1042692*
X1041328Y943513*
X1040170Y942738*
X1039395Y941580*
X1039124Y940216*
X1039395Y938850*
X1040155Y937717*
X1039395Y936581*
X1039124Y935215*
X1039395Y933851*
X1040155Y932715*
X1039395Y931580*
X1039124Y930216*
X1039395Y928850*
X1040155Y927717*
X1039395Y926581*
X1039124Y925215*
X1039279Y924448*
X1038435Y923178*
X1028849*
Y928669*
X1015850*
Y925728*
X995789*
Y929330*
X991290Y933831*
X982289*
X977790Y929330*
Y925235*
X977013Y924458*
X957729*
Y927399*
X944730*
Y915400*
X957729*
Y918342*
X978281*
X979449Y918573*
X979507Y918613*
X982289Y915830*
X991290*
X995070Y919612*
X1015850*
Y916670*
X1023010*
X1023485Y915560*
X1022748Y914669*
X1015850*
Y911727*
X1014349*
X1013178Y911496*
X1012187Y910831*
X986411Y885057*
X984440Y884798*
X982251Y883892*
X982111Y883785*
X982091Y883790*
X982088Y883787*
X957729*
Y886729*
X944730*
Y874730*
X957729*
Y877671*
X976965*
X977803Y876716*
X977712Y876030*
X978021Y873681*
X978928Y871491*
X980371Y869612*
X982251Y868169*
X984440Y867262*
X986790Y866952*
X989139Y867262*
X991328Y868169*
X993208Y869612*
X994651Y871491*
X995558Y873681*
X995867Y876030*
X995558Y878380*
X994651Y880569*
X993208Y882449*
X993162Y883158*
X1014580Y904575*
X1015850Y904049*
Y902670*
X1027115*
X1027864Y901400*
X1027671Y900430*
Y823788*
X1025723Y821839*
X1018270*
Y808840*
Y807869*
Y794870*
X1030269*
Y797801*
X1061720*
X1063086Y798073*
X1064244Y798847*
X1080668Y815271*
X1081841Y814786*
Y800315*
X1062992Y781466*
X1028598*
X1027427Y781232*
X1026434Y780569*
X1015596Y769731*
X1014702Y770102*
X1012190Y770432*
X1009677Y770102*
X1007338Y769132*
X1005329Y767590*
X1003787Y765581*
X1002817Y763242*
X1002487Y760730*
X1002817Y758217*
X1003787Y755878*
X1005329Y753869*
X1007338Y752327*
X1009677Y751357*
X1012190Y751027*
X1014702Y751357*
X1017041Y752327*
X1019050Y753869*
X1020592Y755878*
X1021562Y758217*
X1021892Y760730*
X1021562Y763242*
X1020592Y765581*
X1020376Y765860*
X1029863Y775350*
X1044953*
X1045438Y774176*
X1040996Y769731*
X1040102Y770102*
X1037590Y770432*
X1035077Y770102*
X1032738Y769132*
X1030729Y767590*
X1029187Y765581*
X1028217Y763242*
X1027887Y760730*
X1028217Y758217*
X1029187Y755878*
X1030729Y753869*
X1032738Y752327*
X1035077Y751357*
X1037590Y751027*
X1040102Y751357*
X1042441Y752327*
X1044450Y753869*
X1045992Y755878*
X1046962Y758217*
X1047292Y760730*
X1046962Y763242*
X1045992Y765581*
X1045778Y765860*
X1050582Y770666*
X1058522*
X1058776Y769396*
X1058138Y769132*
X1056129Y767590*
X1054587Y765581*
X1053617Y763242*
X1053287Y760730*
X1053617Y758217*
X1054587Y755878*
X1056129Y753869*
X1058138Y752327*
X1060477Y751357*
X1062990Y751027*
X1065502Y751357*
X1067841Y752327*
X1069850Y753869*
X1071392Y755878*
X1072362Y758217*
X1072692Y760730*
X1072362Y763242*
X1071392Y765581*
X1069850Y767590*
X1069804Y768311*
X1097064Y795571*
X1097727Y796564*
X1097958Y797735*
Y816576*
X1099210Y816792*
X1100546Y814796*
X1102542Y813460*
X1103630Y813244*
Y819150*
Y825055*
X1102542Y824839*
X1100546Y823503*
X1099210Y821507*
X1097958Y821723*
Y833589*
X1099228Y834339*
X1100193Y834146*
X1101559Y834420*
X1102692Y835177*
X1103828Y834420*
X1105194Y834146*
X1106558Y834420*
X1107694Y835177*
X1108829Y834420*
X1110193Y834146*
X1111559Y834420*
X1112692Y835177*
X1113828Y834420*
X1115194Y834146*
X1116558Y834420*
X1117693Y835177*
X1118829Y834420*
X1120193Y834146*
X1120571Y834222*
X1121841Y833196*
Y829609*
X1114910*
Y817610*
X1124219*
X1124996Y816340*
X1124902Y816157*
X1124889Y816150*
X1122680*
Y809609*
Y803069*
X1125971*
Y783587*
X1106172Y763788*
X1097536*
X1096792Y765581*
X1095250Y767590*
X1093241Y769132*
X1090902Y770102*
X1088390Y770432*
X1085877Y770102*
X1083538Y769132*
X1081529Y767590*
X1079987Y765581*
X1079017Y763242*
X1078687Y760730*
X1079017Y758217*
X1079987Y755878*
X1081529Y753869*
X1083538Y752327*
X1085877Y751357*
X1088390Y751027*
X1090902Y751357*
X1093241Y752327*
X1095250Y753869*
X1096792Y755878*
X1097536Y757671*
X1107440*
X1108610Y757902*
X1109604Y758568*
X1131194Y780158*
X1131857Y781149*
X1132088Y782320*
Y803610*
X1134097*
X1134861Y802640*
X1135092Y801469*
X1135758Y800475*
X1161531Y774702*
Y766340*
X1159609Y765545*
X1157546Y763963*
X1155964Y761898*
X1154971Y759498*
X1154630Y756920*
X1154971Y754341*
X1155964Y751941*
X1157546Y749879*
X1159609Y748294*
X1162011Y747301*
X1164590Y746960*
X1167168Y747301*
X1169570Y748294*
X1171630Y749879*
X1173215Y751941*
X1174208Y754341*
X1174549Y756920*
X1174208Y759498*
X1173215Y761898*
X1171630Y763963*
X1169570Y765545*
X1167648Y766340*
Y774959*
X1168918Y775484*
X1170955Y773447*
X1172113Y772673*
X1173480Y772401*
X1185458*
Y766919*
X1202883*
X1221171Y748631*
X1220683Y747458*
X1205230*
Y739190*
X1222999*
Y745144*
X1224173Y745629*
X1231917Y737887*
X1232532Y737476*
X1232852Y737260*
X1232357Y736064*
X1232034Y736127*
X1231900Y736155*
Y731520*
X1236535*
X1236319Y732607*
X1234983Y734603*
X1233528Y735576*
X1233208Y735792*
X1233703Y736988*
X1234025Y736922*
X1234440Y736841*
X1277620*
X1278986Y737113*
X1280144Y737887*
X1299796Y757539*
X1326431*
Y770371*
X1362712*
X1390131Y742952*
Y723900*
X1390362Y722729*
X1391025Y721738*
X1396083Y716681*
X1395364Y714949*
X1395039Y712470*
X1395364Y709990*
X1396321Y707679*
X1397843Y705695*
X1399829Y704171*
X1402140Y703214*
X1404620Y702889*
X1407099Y703214*
X1409410Y704171*
X1411394Y705695*
X1412918Y707679*
X1413875Y709990*
X1414200Y712470*
X1413875Y714949*
X1412918Y717260*
X1411394Y719246*
X1409410Y720768*
X1407099Y721725*
X1404620Y722050*
X1402140Y721725*
X1400408Y721006*
X1396248Y725167*
Y731088*
X1397518Y731520*
X1397843Y731093*
X1399829Y729571*
X1402140Y728614*
X1404620Y728289*
X1407099Y728614*
X1409410Y729571*
X1411394Y731093*
X1412918Y733079*
X1413875Y735390*
X1414200Y737870*
X1413875Y740349*
X1412918Y742660*
X1411394Y744644*
X1409410Y746168*
X1407099Y747125*
X1404620Y747450*
X1402140Y747125*
X1401305Y746780*
X1368493Y779592*
X1367500Y780254*
X1366329Y780488*
X1327678*
X1326431Y780539*
Y794539*
X1319918*
Y811778*
X1331239Y823102*
X1362359*
X1364114Y823450*
X1365605Y824445*
X1366674Y823722*
X1366537Y823386*
X1366314Y821690*
X1366537Y819993*
X1367193Y818410*
X1368234Y817054*
X1369590Y816013*
X1371173Y815357*
X1372870Y815134*
X1374566Y815357*
X1376149Y816013*
X1377505Y817054*
X1378546Y818410*
X1379202Y819993*
X1379425Y821690*
X1379202Y823386*
X1378546Y824969*
X1377505Y826325*
X1376286Y827262*
X1376304Y827737*
X1376644Y828532*
X1394460*
X1396215Y828880*
X1397703Y829876*
X1426913Y859086*
X1427909Y860574*
X1428257Y862330*
Y1055370*
X1427909Y1057125*
X1426913Y1058613*
X1421833Y1063693*
X1420345Y1064689*
X1418590Y1065037*
X1413497*
X1413309Y1066307*
X1415310Y1066914*
X1419567Y1069190*
X1423299Y1072253*
X1426359Y1075982*
X1428635Y1080239*
X1430035Y1084856*
X1430507Y1089660*
X1430035Y1094463*
X1428635Y1099080*
X1426359Y1103337*
X1423299Y1107066*
X1419567Y1110129*
X1415310Y1112405*
X1410693Y1113805*
X1405890Y1114277*
G37*
G36*
X970280Y1111737D02*
X965476Y1111265D01*
X960859Y1109865*
X956602Y1107589*
X952873Y1104529*
X949810Y1100797*
X947534Y1096540*
X946134Y1091923*
X945662Y1087120*
X946134Y1082316*
X947534Y1077699*
X949810Y1073442*
X952873Y1069710*
X956602Y1066650*
X960859Y1064374*
X965476Y1062974*
X970280Y1062502*
X975083Y1062974*
X979700Y1064374*
X983957Y1066650*
X987689Y1069710*
X990749Y1073442*
X993025Y1077699*
X994425Y1082316*
X994897Y1087120*
X994425Y1091923*
X993025Y1096540*
X990749Y1100797*
X987689Y1104529*
X983957Y1107589*
X979700Y1109865*
X975083Y1111265*
X970280Y1111737*
G37*
G36*
X957580Y1055311D02*
Y1043940D01*
X968951*
X968682Y1045984*
X967404Y1049075*
X965367Y1051727*
X962715Y1053762*
X959624Y1055042*
X957580Y1055311*
G37*
G36*
X955040D02*
X952995Y1055042D01*
X949904Y1053762*
X947252Y1051727*
X945215Y1049075*
X943937Y1045984*
X943668Y1043940*
X955040*
Y1055311*
G37*
G36*
X968951Y1041400D02*
X957580D01*
Y1030028*
X959624Y1030297*
X962715Y1031577*
X965367Y1033612*
X967404Y1036264*
X968682Y1039355*
X968951Y1041400*
G37*
G36*
X955040D02*
X943668D01*
X943937Y1039355*
X945215Y1036264*
X947252Y1033612*
X949904Y1031577*
X952995Y1030297*
X955040Y1030028*
Y1041400*
G37*
G36*
X1027430Y1018095D02*
Y1013460D01*
X1032065*
X1031849Y1014547*
X1030513Y1016543*
X1028517Y1017879*
X1027430Y1018095*
G37*
G36*
X1024890D02*
X1023802Y1017879D01*
X1021806Y1016543*
X1020470Y1014547*
X1020254Y1013460*
X1024890*
Y1018095*
G37*
G36*
X948690Y1014285D02*
Y1009650D01*
X953325*
X953109Y1010737*
X951773Y1012733*
X949777Y1014069*
X948690Y1014285*
G37*
G36*
X946150D02*
X945062Y1014069D01*
X943066Y1012733*
X941730Y1010737*
X941514Y1009650*
X946150*
Y1014285*
G37*
G36*
X1032065Y1010920D02*
X1027430D01*
Y1006284*
X1028517Y1006500*
X1030513Y1007836*
X1031849Y1009832*
X1032065Y1010920*
G37*
G36*
X1024890D02*
X1020254D01*
X1020470Y1009832*
X1021806Y1007836*
X1023802Y1006500*
X1024890Y1006284*
Y1010920*
G37*
G36*
X953325Y1007110D02*
X948690D01*
Y1002474*
X949777Y1002690*
X951773Y1004026*
X953109Y1006022*
X953325Y1007110*
G37*
G36*
X946150D02*
X941514D01*
X941730Y1006022*
X943066Y1004026*
X945062Y1002690*
X946150Y1002474*
Y1007110*
G37*
G36*
X1040130Y1005410D02*
X1034359D01*
Y1000140*
X1040130*
Y1005410*
G37*
G36*
Y997600D02*
X1034359D01*
Y992329*
X1040130*
Y997600*
G37*
G36*
X1001268Y989911D02*
X998093Y989492D01*
X995136Y988268*
X992596Y986317*
X990645Y983777*
X989421Y980821*
X989002Y977646*
X989421Y974471*
X990645Y971514*
X992596Y968974*
X995136Y967023*
X998093Y965799*
X1001268Y965380*
X1004443Y965799*
X1007399Y967023*
X1009939Y968974*
X1011890Y971514*
X1013114Y974471*
X1013533Y977646*
X1013114Y980821*
X1011890Y983777*
X1009939Y986317*
X1007399Y988268*
X1004443Y989492*
X1001268Y989911*
G37*
G36*
X956310D02*
X953135Y989492D01*
X950178Y988268*
X947638Y986317*
X945687Y983777*
X944463Y980821*
X944044Y977646*
X944463Y974471*
X945687Y971514*
X947638Y968974*
X950178Y967023*
X953135Y965799*
X956310Y965380*
X959485Y965799*
X962441Y967023*
X964981Y968974*
X966932Y971514*
X968156Y974471*
X968575Y977646*
X968156Y980821*
X966932Y983777*
X964981Y986317*
X962441Y988268*
X959485Y989492*
X956310Y989911*
G37*
G36*
X958850Y963485D02*
Y958850D01*
X963485*
X963269Y959937*
X961933Y961933*
X959937Y963269*
X958850Y963485*
G37*
G36*
X956310D02*
X955222Y963269D01*
X953226Y961933*
X951890Y959937*
X951674Y958850*
X956310*
Y963485*
G37*
G36*
X1029970Y958405D02*
Y953770D01*
X1034605*
X1034389Y954857*
X1033053Y956853*
X1031057Y958189*
X1029970Y958405*
G37*
G36*
X1027430D02*
X1026342Y958189D01*
X1024346Y956853*
X1023010Y954857*
X1022794Y953770*
X1027430*
Y958405*
G37*
G36*
X963485Y956310D02*
X958850D01*
Y951674*
X959937Y951890*
X961933Y953226*
X963269Y955222*
X963485Y956310*
G37*
G36*
X956310D02*
X951674D01*
X951890Y955222*
X953226Y953226*
X955222Y951890*
X956310Y951674*
Y956310*
G37*
G36*
X1034605Y951230D02*
X1029970D01*
Y946594*
X1031057Y946810*
X1033053Y948146*
X1034389Y950142*
X1034605Y951230*
G37*
G36*
X1027430D02*
X1022794D01*
X1023010Y950142*
X1024346Y948146*
X1026342Y946810*
X1027430Y946594*
Y951230*
G37*
G36*
X958270Y913940D02*
X952500D01*
Y908669*
X958270*
Y913940*
G37*
G36*
X949960D02*
X944189D01*
Y908669*
X949960*
Y913940*
G37*
G36*
X981710Y906335D02*
Y901700D01*
X986345*
X986129Y902787*
X984793Y904783*
X982797Y906119*
X981710Y906335*
G37*
G36*
X979170D02*
X978082Y906119D01*
X976086Y904783*
X974750Y902787*
X974534Y901700*
X979170*
Y906335*
G37*
G36*
X951230Y907399D02*
D01*
Y906129*
X944189*
Y900859*
Y896000*
X951230*
X958270*
Y900859*
Y906129*
X951230*
Y907399*
G37*
G36*
X986345Y899160D02*
X981710D01*
Y894524*
X982797Y894740*
X984793Y896076*
X986129Y898072*
X986345Y899160*
G37*
G36*
X979170D02*
X974534D01*
X974750Y898072*
X976086Y896076*
X978082Y894740*
X979170Y894524*
Y899160*
G37*
G36*
X958270Y893460D02*
X952500D01*
Y888189*
X958270*
Y893460*
G37*
G36*
X949960D02*
X944189D01*
Y888189*
X949960*
Y893460*
G37*
G36*
X948690Y850455D02*
Y845820D01*
X953325*
X953109Y846907*
X951773Y848903*
X949777Y850239*
X948690Y850455*
G37*
G36*
X946150D02*
X945062Y850239D01*
X943066Y848903*
X941730Y846907*
X941514Y845820*
X946150*
Y850455*
G37*
G36*
X953325Y843280D02*
X948690D01*
Y838644*
X949777Y838860*
X951773Y840196*
X953109Y842192*
X953325Y843280*
G37*
G36*
X946150D02*
X941514D01*
X941730Y842192*
X943066Y840196*
X945062Y838860*
X946150Y838644*
Y843280*
G37*
G36*
X1106170Y825055D02*
Y820420D01*
X1110805*
X1110589Y821507*
X1109253Y823503*
X1107257Y824839*
X1106170Y825055*
G37*
G36*
X960120Y824407D02*
Y815340D01*
X969187*
X968994Y816787*
X967945Y819322*
X966276Y821496*
X964102Y823165*
X961567Y824217*
X960120Y824407*
G37*
G36*
X957580D02*
X956132Y824217D01*
X953597Y823165*
X951423Y821496*
X949754Y819322*
X948702Y816787*
X948512Y815340*
X957580*
Y824407*
G37*
G36*
X1110805Y817880D02*
X1106170D01*
Y813244*
X1107257Y813460*
X1109253Y814796*
X1110589Y816792*
X1110805Y817880*
G37*
G36*
X1120140Y816150D02*
X1114369D01*
Y810879*
X1120140*
Y816150*
G37*
G36*
X969187Y812800D02*
X960120D01*
Y803732*
X961567Y803925*
X964102Y804974*
X966276Y806643*
X967945Y808817*
X968994Y811352*
X969187Y812800*
G37*
G36*
X957580D02*
X948512D01*
X948702Y811352*
X949754Y808817*
X951423Y806643*
X953597Y804974*
X956132Y803925*
X957580Y803732*
Y812800*
G37*
G36*
X1120140Y808339D02*
X1114369D01*
Y803069*
X1120140*
Y808339*
G37*
G36*
X984250Y824029D02*
X981671Y823688D01*
X979271Y822695*
X977209Y821110*
X975624Y819050*
X974631Y816648*
X974290Y814070*
X974631Y811491*
X975624Y809091*
X977209Y807026*
X979271Y805444*
X981671Y804451*
X984250Y804110*
X986828Y804451*
X989228Y805444*
X991290Y807026*
X992875Y809091*
X993868Y811491*
X993973Y812281*
X1004270*
Y809457*
X1003729Y808410*
Y807793*
Y802640*
X1010269*
X1016810*
Y808410*
X1016269Y809457*
Y809680*
Y821839*
X1004270*
Y818398*
X993145*
X992875Y819050*
X991290Y821110*
X989228Y822695*
X986828Y823688*
X984250Y824029*
G37*
G36*
X1016810Y800100D02*
X1011539D01*
Y794329*
X1016810*
Y800100*
G37*
G36*
X1008999D02*
X1003729D01*
Y794329*
X1008999*
Y800100*
G37*
G36*
X1414868Y811189D02*
X1390870D01*
Y787189*
X1414868*
Y811189*
G37*
G36*
X1359870D02*
X1335869D01*
Y787189*
X1359870*
Y811189*
G37*
G36*
X1381760Y784415D02*
Y779780D01*
X1386395*
X1386179Y780867*
X1384843Y782863*
X1382847Y784199*
X1381760Y784415*
G37*
G36*
X1379220D02*
X1378132Y784199D01*
X1376136Y782863*
X1374800Y780867*
X1374584Y779780*
X1379220*
Y784415*
G37*
G36*
X1386395Y777240D02*
X1381760D01*
Y772604*
X1382847Y772820*
X1384843Y774156*
X1386179Y776152*
X1386395Y777240*
G37*
G36*
X1379220D02*
X1374584D01*
X1374800Y776152*
X1376136Y774156*
X1378132Y772820*
X1379220Y772604*
Y777240*
G37*
G36*
X989330Y767905D02*
Y763270D01*
X993965*
X993749Y764357*
X992413Y766353*
X990417Y767689*
X989330Y767905*
G37*
G36*
X986790D02*
X985702Y767689D01*
X983706Y766353*
X982370Y764357*
X982154Y763270*
X986790*
Y767905*
G37*
G36*
X1140460Y767255D02*
Y758190D01*
X1149525*
X1149334Y759637*
X1148285Y762172*
X1146616Y764346*
X1144442Y766015*
X1141907Y767064*
X1140460Y767255*
G37*
G36*
X1137920D02*
X1136472Y767064D01*
X1133937Y766015*
X1131763Y764346*
X1130094Y762172*
X1129045Y759637*
X1128852Y758190*
X1137920*
Y767255*
G37*
G36*
X993965Y760730D02*
X989330D01*
Y756094*
X990417Y756310*
X992413Y757646*
X993749Y759642*
X993965Y760730*
G37*
G36*
X986790D02*
X982154D01*
X982370Y759642*
X983706Y757646*
X985702Y756310*
X986790Y756094*
Y760730*
G37*
G36*
X1404620Y772850D02*
X1402140Y772525D01*
X1399829Y771568*
X1397843Y770046*
X1396321Y768060*
X1395364Y765749*
X1395039Y763270*
X1395364Y760790*
X1396321Y758479*
X1397843Y756493*
X1399829Y754971*
X1402140Y754014*
X1404620Y753689*
X1407099Y754014*
X1409410Y754971*
X1411394Y756493*
X1412918Y758479*
X1413875Y760790*
X1414200Y763270*
X1413875Y765749*
X1412918Y768060*
X1411394Y770046*
X1409410Y771568*
X1407099Y772525*
X1404620Y772850*
G37*
G36*
X1149525Y755650D02*
X1140460D01*
Y746584*
X1141907Y746772*
X1144442Y747824*
X1146616Y749493*
X1148285Y751667*
X1149334Y754202*
X1149525Y755650*
G37*
G36*
X1137920D02*
X1128852D01*
X1129045Y754202*
X1130094Y751667*
X1131763Y749493*
X1133937Y747824*
X1136472Y746772*
X1137920Y746584*
Y755650*
G37*
G36*
X1326969Y749079D02*
X1312199D01*
Y742810*
X1326969*
Y749079*
G37*
G36*
X1309659D02*
X1294889D01*
Y742810*
X1309659*
Y749079*
G37*
G36*
X1202690Y747458D02*
X1184920D01*
Y739190*
X1202690*
Y747458*
G37*
G36*
X1140460Y739965D02*
Y735330D01*
X1145095*
X1144879Y736417*
X1143543Y738413*
X1141547Y739749*
X1140460Y739965*
G37*
G36*
X1137920D02*
X1136832Y739749D01*
X1134836Y738413*
X1133500Y736417*
X1133284Y735330*
X1137920*
Y739965*
G37*
G36*
X1326969Y740270D02*
X1312199D01*
Y733999*
X1326969*
Y740270*
G37*
G36*
X1309659D02*
X1294889D01*
Y733999*
X1309659*
Y740270*
G37*
G36*
X1334770Y736155D02*
Y731520D01*
X1339405*
X1339189Y732607*
X1337853Y734603*
X1335857Y735939*
X1334770Y736155*
G37*
G36*
X1332230D02*
X1331142Y735939D01*
X1329146Y734603*
X1327810Y732607*
X1327594Y731520*
X1332230*
Y736155*
G37*
G36*
X1229360D02*
X1228272Y735939D01*
X1226276Y734603*
X1224940Y732607*
X1224724Y731520*
X1229360*
Y736155*
G37*
G36*
X1222999Y736650D02*
X1205230D01*
Y728380*
X1222999*
Y736650*
G37*
G36*
X1202690D02*
X1184920D01*
Y728380*
X1202690*
Y736650*
G37*
G36*
X1145095Y732790D02*
X1140460D01*
Y728154*
X1141547Y728370*
X1143543Y729706*
X1144879Y731702*
X1145095Y732790*
G37*
G36*
X1137920D02*
X1133284D01*
X1133500Y731702*
X1134836Y729706*
X1136832Y728370*
X1137920Y728154*
Y732790*
G37*
G36*
X1339405Y728980D02*
X1334770D01*
Y724344*
X1335857Y724560*
X1337853Y725896*
X1339189Y727892*
X1339405Y728980*
G37*
G36*
X1332230D02*
X1327594D01*
X1327810Y727892*
X1329146Y725896*
X1331142Y724560*
X1332230Y724344*
Y728980*
G37*
G36*
X1236535D02*
X1231900D01*
Y724344*
X1232987Y724560*
X1234983Y725896*
X1236319Y727892*
X1236535Y728980*
G37*
G36*
X1229360D02*
X1224724D01*
X1224940Y727892*
X1226276Y725896*
X1228272Y724560*
X1229360Y724344*
Y728980*
G37*
G36*
X989330Y717105D02*
Y712470D01*
X993965*
X993749Y713557*
X992413Y715553*
X990417Y716889*
X989330Y717105*
G37*
G36*
X986790D02*
X985702Y716889D01*
X983706Y715553*
X982370Y713557*
X982154Y712470*
X986790*
Y717105*
G37*
G36*
X953770D02*
Y712470D01*
X958405*
X958189Y713557*
X956853Y715553*
X954857Y716889*
X953770Y717105*
G37*
G36*
X951230D02*
X950142Y716889D01*
X948146Y715553*
X946810Y713557*
X946594Y712470*
X951230*
Y717105*
G37*
G36*
X993965Y709930D02*
X989330D01*
Y705294*
X990417Y705510*
X992413Y706846*
X993749Y708842*
X993965Y709930*
G37*
G36*
X986790D02*
X982154D01*
X982370Y708842*
X983706Y706846*
X985702Y705510*
X986790Y705294*
Y709930*
G37*
G36*
X958405D02*
X953770D01*
Y705294*
X954857Y705510*
X956853Y706846*
X958189Y708842*
X958405Y709930*
G37*
G36*
X951230D02*
X946594D01*
X946810Y708842*
X948146Y706846*
X950142Y705510*
X951230Y705294*
Y709930*
G37*
G36*
X1384300Y699325D02*
Y694690D01*
X1388935*
X1388719Y695777*
X1387383Y697773*
X1385387Y699109*
X1384300Y699325*
G37*
G36*
X1381760D02*
X1380672Y699109D01*
X1378676Y697773*
X1377340Y695777*
X1377124Y694690*
X1381760*
Y699325*
G37*
G36*
X1414660Y697110D02*
X1405890D01*
Y688340*
X1414660*
Y697110*
G37*
G36*
X1403350D02*
X1394579D01*
Y688340*
X1403350*
Y697110*
G37*
G36*
X1388935Y692150D02*
X1384300D01*
Y687514*
X1385387Y687730*
X1387383Y689066*
X1388719Y691062*
X1388935Y692150*
G37*
G36*
X1381760D02*
X1377124D01*
X1377340Y691062*
X1378676Y689066*
X1380672Y687730*
X1381760Y687514*
Y692150*
G37*
G36*
X1414660Y685800D02*
X1405890D01*
Y677029*
X1414660*
Y685800*
G37*
G36*
X1403350D02*
X1394579D01*
Y677029*
X1403350*
Y685800*
G37*
G36*
X1292860Y705523D02*
X1116330D01*
X1113198Y705111*
X1110277Y703902*
X1107772Y701979*
X1084249Y678456*
X1083335Y678337*
X1079807Y676876*
X1076777Y674550*
X1074453Y671522*
X1072992Y667994*
X1072494Y664210*
X1072992Y660425*
X1074453Y656897*
X1076777Y653869*
X1079807Y651545*
X1083335Y650082*
X1087120Y649584*
X1090904Y650082*
X1094432Y651545*
X1097460Y653869*
X1099784Y656897*
X1101247Y660425*
X1101366Y661339*
X1121343Y681316*
X1191856*
Y669813*
X1191102Y667994*
X1190604Y664210*
X1191102Y660425*
X1192565Y656897*
X1194889Y653869*
X1197917Y651545*
X1201445Y650082*
X1205230Y649584*
X1209014Y650082*
X1212542Y651545*
X1215572Y653869*
X1217896Y656897*
X1219357Y660425*
X1219855Y664210*
X1219357Y667994*
X1217896Y671522*
X1216063Y673910*
Y681316*
X1287846*
X1309093Y660069*
X1309212Y659155*
X1310673Y655627*
X1312997Y652597*
X1316027Y650273*
X1319555Y648812*
X1323340Y648314*
X1327124Y648812*
X1330652Y650273*
X1333680Y652597*
X1336004Y655627*
X1337467Y659155*
X1337965Y662940*
X1337467Y666724*
X1336004Y670252*
X1333680Y673282*
X1330652Y675604*
X1327124Y677067*
X1326210Y677186*
X1301417Y701979*
X1298912Y703902*
X1295991Y705111*
X1292860Y705523*
G37*
G36*
X1272590Y678225D02*
X1268806Y677727D01*
X1265278Y676264*
X1262247Y673940*
X1259923Y670913*
X1258463Y667385*
X1258343Y666470*
X1237706Y645833*
X1166533*
Y653745*
X1167503Y655007*
X1168712Y657928*
X1169123Y661060*
X1168948Y662398*
X1169106Y663600*
X1168605Y667385*
X1167145Y670913*
X1164821Y673940*
X1161793Y676264*
X1158265Y677727*
X1154480Y678225*
X1150693Y677727*
X1147168Y676264*
X1144137Y673940*
X1141813Y670913*
X1140353Y667385*
X1139855Y663600*
X1140353Y659815*
X1141813Y656287*
X1142326Y655619*
Y645833*
X1071252*
X1050617Y666470*
X1050498Y667385*
X1049035Y670913*
X1046711Y673940*
X1043683Y676264*
X1040155Y677727*
X1036370Y678225*
X1032586Y677727*
X1029058Y676264*
X1026027Y673940*
X1023703Y670913*
X1022243Y667385*
X1021745Y663600*
X1022243Y659815*
X1023703Y656287*
X1026027Y653257*
X1029058Y650933*
X1032586Y649472*
X1033500Y649353*
X1057681Y625170*
X1060188Y623247*
X1063106Y622038*
X1066241Y621626*
X1242720*
X1245852Y622038*
X1248773Y623247*
X1251277Y625170*
X1275461Y649353*
X1276375Y649472*
X1279903Y650933*
X1282931Y653257*
X1285255Y656287*
X1286715Y659815*
X1287216Y663600*
X1286715Y667385*
X1285255Y670913*
X1282931Y673940*
X1279903Y676264*
X1276375Y677727*
X1272590Y678225*
G37*
G36*
X971550Y673587D02*
X966746Y673115D01*
X962129Y671715*
X957872Y669439*
X954140Y666376*
X951080Y662647*
X948804Y658390*
X947404Y653773*
X946932Y648970*
X947404Y644166*
X948804Y639549*
X951080Y635292*
X954140Y631560*
X957872Y628500*
X962129Y626224*
X966746Y624824*
X971550Y624352*
X976353Y624824*
X980970Y626224*
X985227Y628500*
X988956Y631560*
X992019Y635292*
X994295Y639549*
X995695Y644166*
X996167Y648970*
X995695Y653773*
X994295Y658390*
X992019Y662647*
X988956Y666376*
X985227Y669439*
X980970Y671715*
X976353Y673115*
X971550Y673587*
G37*
G36*
X1404620Y672317D02*
X1399816Y671845D01*
X1395199Y670445*
X1390942Y668169*
X1387210Y665109*
X1384150Y661377*
X1381874Y657120*
X1380474Y652503*
X1380002Y647700*
X1380474Y642896*
X1381874Y638279*
X1384150Y634022*
X1387210Y630293*
X1390942Y627230*
X1395199Y624954*
X1399816Y623554*
X1404620Y623082*
X1409423Y623554*
X1414040Y624954*
X1418297Y627230*
X1422029Y630293*
X1425089Y634022*
X1427365Y638279*
X1428765Y642896*
X1429237Y647700*
X1428765Y652503*
X1427365Y657120*
X1425089Y661377*
X1422029Y665109*
X1418297Y668169*
X1414040Y670445*
X1409423Y671845*
X1404620Y672317*
G37*
%LNpcb_cloud_controller-3*%
%LPD*%
G36*
X1324927Y1095555D02*
X1324127Y1094511D01*
X1323157Y1092172*
X1322826Y1089660*
X1323157Y1087147*
X1324127Y1084808*
X1325669Y1082799*
X1327678Y1081257*
X1330017Y1080287*
X1332529Y1079957*
X1335041Y1080287*
X1337381Y1081257*
X1338425Y1082057*
X1363276Y1057206*
X1364764Y1056210*
X1366520Y1055862*
X1393850*
Y1036980*
X1412849*
Y1055862*
X1416690*
X1419082Y1053470*
Y984509*
X1417812Y984384*
X1417607Y985420*
X1416944Y986411*
X1411886Y991468*
X1412605Y993200*
X1412930Y995680*
X1412605Y998159*
X1411648Y1000470*
X1410124Y1002456*
X1408140Y1003978*
X1405829Y1004935*
X1403350Y1005260*
X1400870Y1004935*
X1398559Y1003978*
X1396573Y1002456*
X1395051Y1000470*
X1394094Y998159*
X1393769Y995680*
X1394094Y993200*
X1395051Y990889*
X1396573Y988905*
X1398559Y987381*
X1400870Y986424*
X1403350Y986099*
X1405829Y986424*
X1407561Y987143*
X1411721Y982982*
Y977839*
X1410893Y977557*
X1410451Y977485*
X1408412Y979050*
X1405971Y980061*
X1404620Y980239*
Y970280*
Y960320*
X1405971Y960498*
X1408412Y961509*
X1410451Y963074*
X1410893Y963002*
X1411721Y962720*
Y951661*
X1410451Y951230*
X1410124Y951656*
X1408140Y953178*
X1405829Y954135*
X1403350Y954460*
X1400870Y954135*
X1398559Y953178*
X1396573Y951656*
X1395051Y949670*
X1394546Y948448*
X1246078*
X1230612Y963912*
X1229456Y964686*
X1228090Y964958*
X1223431*
X1223164Y965354*
X1221346Y966571*
X1219200Y966998*
X1217053Y966571*
X1215235Y965354*
X1214018Y963536*
X1213878Y962830*
X1212608Y962954*
Y980140*
X1218079*
Y981570*
X1220320*
Y980140*
X1233319*
X1234290*
X1247289*
Y981570*
X1249530*
Y980140*
X1262529*
Y981570*
X1264770*
Y980140*
X1277769*
Y981570*
X1279278*
Y978138*
X1296281*
Y992139*
X1279278*
Y988707*
X1277769*
Y992139*
X1264770*
Y988707*
X1262529*
Y992139*
X1249530*
Y988707*
X1247289*
Y992139*
X1234290*
X1233319*
X1220320*
Y988707*
X1218079*
Y992139*
X1205080*
Y988707*
X1202839*
Y992139*
X1189840*
Y980140*
X1202839*
Y981570*
X1205080*
Y980140*
X1205471*
Y954979*
X1204201Y954516*
X1202507Y955649*
X1201420Y955865*
Y949960*
X1200150*
Y948690*
X1194244*
X1194460Y947602*
X1195796Y945606*
X1196764Y944958*
X1196378Y943688*
X1174993*
X1174511Y943785*
X1172695*
X1154694*
X1150528*
X1149162Y943513*
X1148003Y942738*
X1128793Y923526*
X1128019Y922370*
X1127747Y921004*
Y896343*
X1126627Y895746*
X1126307Y895959*
X1125220Y896175*
Y890270*
Y884364*
X1126307Y884580*
X1126627Y884793*
X1127747Y884196*
Y875946*
X1081036*
Y884026*
X1082029Y884557*
X1082306Y884562*
X1083310Y884364*
Y890270*
Y896175*
X1082306Y895977*
X1082029Y895982*
X1081036Y896513*
Y925936*
X1082029Y926467*
X1082306Y926475*
X1083310Y926274*
Y932180*
Y938085*
X1082222Y937869*
X1080226Y936533*
X1079974Y936160*
X1078710Y936035*
X1073470Y941278*
Y944643*
X1073924Y945019*
Y958715*
Y972413*
X1073467Y972786*
Y988151*
X1073195Y989515*
X1072423Y990673*
X1065679Y997417*
Y1004869*
X1054066*
X1053645Y1006139*
X1076957Y1029451*
X1097788*
X1098395Y1028545*
X1100213Y1027328*
X1102360Y1026901*
X1104506Y1027328*
X1106324Y1028545*
X1106921Y1029436*
X1108191Y1029050*
Y1006680*
X1104900*
Y1000140*
X1102360*
Y1006680*
X1096589*
X1090930*
Y1000140*
Y993599*
X1096700*
X1103782*
X1104463Y992329*
X1104333Y992139*
X1097130*
X1096159*
X1083160*
Y980140*
X1086840*
Y972235*
X1085570Y971209*
X1085194Y971285*
X1083828Y971014*
X1082695Y970254*
X1081559Y971014*
X1080193Y971285*
X1078829Y971014*
X1078151Y970561*
X1078105Y970627*
X1076769Y971522*
X1076464Y971583*
Y958715*
Y945850*
X1076769Y945911*
X1078105Y946802*
X1078151Y946871*
X1078829Y946419*
X1080193Y946147*
X1081559Y946419*
X1082695Y947176*
X1083828Y946419*
X1085194Y946147*
X1086558Y946419*
X1087694Y947176*
X1088829Y946419*
X1090193Y946147*
X1091559Y946419*
X1092695Y947176*
X1093828Y946419*
X1095194Y946147*
X1096558Y946419*
X1097694Y947176*
X1098829Y946419*
X1100193Y946147*
X1101559Y946419*
X1102692Y947176*
X1103828Y946419*
X1105194Y946147*
X1106558Y946419*
X1107694Y947176*
X1108829Y946419*
X1110193Y946147*
X1111559Y946419*
X1112692Y947176*
X1113828Y946419*
X1115194Y946147*
X1116558Y946419*
X1117693Y947176*
X1118829Y946419*
X1120193Y946147*
X1121559Y946419*
X1122692Y947176*
X1123828Y946419*
X1125194Y946147*
X1126558Y946419*
X1127693Y947176*
X1128829Y946419*
X1130193Y946147*
X1131559Y946419*
X1132692Y947176*
X1133828Y946419*
X1135194Y946147*
X1136558Y946419*
X1137693Y947176*
X1138829Y946419*
X1140193Y946147*
X1141559Y946419*
X1142695Y947176*
X1143828Y946419*
X1145194Y946147*
X1146558Y946419*
X1147716Y947191*
X1148491Y948349*
X1148763Y949716*
Y956551*
X1191140*
X1191653Y956208*
X1193800Y955781*
X1195946Y956208*
X1197764Y957425*
X1198981Y959243*
X1199408Y961390*
X1198981Y963536*
X1197764Y965354*
X1195946Y966571*
X1193800Y966998*
X1191653Y966571*
X1189835Y965354*
X1188720Y963688*
X1148763*
Y967717*
X1148491Y969081*
X1147716Y970239*
X1146558Y971014*
X1145194Y971285*
X1145141Y971273*
X1144513Y972444*
X1152210Y980140*
X1163469*
Y983081*
X1165209*
X1166380Y983315*
X1167373Y983978*
X1173104Y989708*
X1173767Y990699*
X1173998Y991870*
Y996330*
X1175268Y996713*
X1175476Y996406*
X1177472Y995070*
X1178560Y994854*
Y1000760*
Y1006665*
X1177472Y1006449*
X1175476Y1005113*
X1175268Y1004806*
X1173998Y1005189*
Y1016000*
X1173767Y1017170*
X1173104Y1018161*
X1167876Y1023388*
X1168364Y1024562*
X1393317*
X1394058Y1023292*
X1393769Y1021080*
X1394094Y1018600*
X1395051Y1016289*
X1396573Y1014303*
X1398559Y1012781*
X1400870Y1011824*
X1403350Y1011499*
X1405829Y1011824*
X1408140Y1012781*
X1410124Y1014303*
X1411648Y1016289*
X1412605Y1018600*
X1412930Y1021080*
X1412605Y1023559*
X1411648Y1025870*
X1410124Y1027856*
X1408140Y1029378*
X1405829Y1030335*
X1403350Y1030660*
X1400870Y1030335*
X1399138Y1029616*
X1398973Y1029782*
X1397980Y1030444*
X1396809Y1030678*
X1142946*
X1142088Y1031651*
X1142258Y1032510*
X1141831Y1034656*
X1140614Y1036474*
X1138796Y1037691*
X1136650Y1038118*
X1134503Y1037691*
X1132685Y1036474*
X1131468Y1034656*
X1131135Y1032972*
X1130079Y1032342*
X1129802Y1032294*
X1129548Y1032446*
Y1052832*
X1139187Y1062471*
X1243330*
X1244500Y1062702*
X1245491Y1063365*
X1268727Y1086601*
X1297985*
X1298727Y1084808*
X1300269Y1082799*
X1302278Y1081257*
X1304617Y1080287*
X1307129Y1079957*
X1309641Y1080287*
X1311981Y1081257*
X1313990Y1082799*
X1315532Y1084808*
X1316502Y1087147*
X1316832Y1089660*
X1316502Y1092172*
X1315532Y1094511*
X1313990Y1096520*
X1311981Y1098062*
X1309641Y1099032*
X1307129Y1099362*
X1304617Y1099032*
X1302278Y1098062*
X1300269Y1096520*
X1298727Y1094511*
X1297985Y1092718*
X1267460*
X1266289Y1092487*
X1265295Y1091821*
X1242062Y1068588*
X1204414*
X1203926Y1069761*
X1215196Y1081029*
X1216987Y1080287*
X1219499Y1079957*
X1222011Y1080287*
X1224351Y1081257*
X1226360Y1082799*
X1227902Y1084808*
X1228872Y1087147*
X1229202Y1089660*
X1228872Y1092172*
X1227902Y1094511*
X1226360Y1096520*
X1224351Y1098062*
X1222011Y1099032*
X1219499Y1099362*
X1216987Y1099032*
X1214648Y1098062*
X1212639Y1096520*
X1211097Y1094511*
X1210127Y1092172*
X1209796Y1089660*
X1210127Y1087147*
X1210871Y1085357*
X1199182Y1073668*
X1136650*
X1135479Y1073437*
X1134488Y1072774*
X1120561Y1058847*
X1119388Y1059334*
Y1072459*
X1127843Y1080914*
X1129357Y1080287*
X1131869Y1079957*
X1134381Y1080287*
X1136721Y1081257*
X1138730Y1082799*
X1140272Y1084808*
X1141242Y1087147*
X1141572Y1089660*
X1141242Y1092172*
X1140272Y1094511*
X1138730Y1096520*
X1136721Y1098062*
X1134381Y1099032*
X1131869Y1099362*
X1129357Y1099032*
X1127018Y1098062*
X1125009Y1096520*
X1123467Y1094511*
X1122497Y1092172*
X1122166Y1089660*
X1122497Y1087147*
X1123355Y1085077*
X1114168Y1075890*
X1113502Y1074897*
X1113271Y1073726*
Y1066954*
X1112098Y1066467*
X1099444Y1079124*
X1098450Y1079787*
X1097280Y1080018*
X1072281*
X1071981Y1081163*
X1071994Y1081288*
X1073960Y1082799*
X1075502Y1084808*
X1076472Y1087147*
X1076802Y1089660*
X1076472Y1092172*
X1076363Y1092433*
X1088049Y1104122*
X1163284*
X1163769Y1102949*
X1159832Y1099012*
X1159781Y1099032*
X1157269Y1099362*
X1154757Y1099032*
X1152418Y1098062*
X1150409Y1096520*
X1148867Y1094511*
X1147897Y1092172*
X1147566Y1089660*
X1147897Y1087147*
X1148867Y1084808*
X1150409Y1082799*
X1152418Y1081257*
X1154757Y1080287*
X1157269Y1079957*
X1159781Y1080287*
X1162121Y1081257*
X1164130Y1082799*
X1165672Y1084808*
X1166642Y1087147*
X1166972Y1089660*
X1166642Y1092172*
X1166446Y1092647*
X1177919Y1104122*
X1251214*
X1251699Y1102949*
X1247675Y1098923*
X1247411Y1099032*
X1244899Y1099362*
X1242387Y1099032*
X1240048Y1098062*
X1238039Y1096520*
X1236497Y1094511*
X1235527Y1092172*
X1235196Y1089660*
X1235527Y1087147*
X1236497Y1084808*
X1238039Y1082799*
X1240048Y1081257*
X1242387Y1080287*
X1244899Y1079957*
X1247411Y1080287*
X1249751Y1081257*
X1251760Y1082799*
X1253302Y1084808*
X1254272Y1087147*
X1254602Y1089660*
X1254272Y1092172*
X1254163Y1092433*
X1265849Y1104122*
X1316360*
X1324927Y1095555*
G37*
G36*
X1131643Y1016561D02*
X1160396D01*
X1163881Y1013076*
Y1006680*
X1158240*
Y1000140*
X1156970*
Y998870*
X1149929*
Y996198*
X1147500*
Y998870*
X1140460*
X1133419*
Y993599*
X1140612*
X1141293Y992329*
X1141163Y992139*
X1133960*
Y983965*
X1133078Y983084*
X1132634Y982764*
X1131394Y983020*
X1130449Y983965*
Y992139*
X1123243*
X1123116Y992329*
X1123797Y993599*
X1130990*
Y998870*
X1123950*
Y1001410*
X1130990*
Y1006680*
X1126840*
X1126576Y1007950*
X1128303Y1009106*
X1129639Y1011102*
X1129855Y1012190*
X1123950*
Y1014730*
X1129855*
X1129639Y1015817*
X1129631Y1015829*
X1130371Y1016675*
X1130520Y1016784*
X1131643Y1016561*
G37*
G36*
X1120239Y972489D02*
X1120236Y972403D01*
X1119738Y971194*
X1118829Y971014*
X1117693Y970254*
X1116558Y971014*
X1115194Y971285*
X1113828Y971014*
X1112692Y970254*
X1111559Y971014*
X1110193Y971285*
X1108829Y971014*
X1107694Y970254*
X1106558Y971014*
X1105194Y971285*
X1103828Y971014*
X1102692Y970254*
X1101559Y971014*
X1100193Y971285*
X1098829Y971014*
X1097694Y970254*
X1096558Y971014*
X1095194Y971285*
X1094229Y971092*
X1092959Y971842*
Y980140*
X1096159*
X1097130*
X1110129*
Y980940*
X1111303Y981425*
X1120239Y972489*
G37*
G36*
X1214018Y959243D02*
X1215235Y957425D01*
X1217053Y956208*
X1219200Y955781*
X1221346Y956208*
X1223164Y957425*
X1223431Y957821*
X1226611*
X1242077Y942357*
X1242100Y942340*
X1241717Y941070*
X1235075*
X1233805Y941034*
X1232410Y942850*
X1230401Y944392*
X1228062Y945362*
X1225550Y945692*
X1223037Y945362*
X1221755Y944831*
X1212608Y953978*
Y959825*
X1213878Y959949*
X1214018Y959243*
G37*
G36*
X1395051Y940089D02*
X1396573Y938105D01*
X1398559Y936581*
X1400870Y935624*
X1403350Y935299*
X1405829Y935624*
X1408140Y936581*
X1410124Y938105*
X1410451Y938530*
X1411721Y938098*
Y926261*
X1410451Y925830*
X1410124Y926256*
X1408140Y927778*
X1405829Y928735*
X1403350Y929060*
X1400870Y928735*
X1399646Y928227*
X1389362Y938512*
X1388745Y938926*
Y941070*
X1389915Y941311*
X1394546*
X1395051Y940089*
G37*
G36*
X1191176Y919048D02*
X1192169Y918382D01*
X1193340Y918151*
X1217625*
X1218252Y916881*
X1217147Y915441*
X1216177Y913102*
X1215847Y910590*
X1216177Y908077*
X1217147Y905738*
X1218374Y904138*
X1217830Y902868*
X1196340*
X1178321Y920887*
X1178806Y922060*
X1188163*
X1191176Y919048*
G37*
G36*
X1282885Y903538D02*
X1282075Y902550D01*
X1281950Y902634*
X1280779Y902868*
X1233266*
X1232725Y904138*
X1233952Y905738*
X1234922Y908077*
X1235252Y910590*
X1234922Y913102*
X1233952Y915441*
X1232847Y916881*
X1233474Y918151*
X1268272*
X1282885Y903538*
G37*
G36*
X1150871Y933716D02*
X1150889Y933640D01*
X1151780Y932304*
X1151849Y932258*
X1151397Y931580*
X1151125Y930216*
X1151397Y928850*
X1152154Y927717*
X1151397Y926581*
X1151125Y925215*
X1151397Y923851*
X1152154Y922715*
X1151397Y921580*
X1151125Y920216*
X1151397Y918850*
X1150749Y917541*
X1150744Y917539*
X1149756Y916879*
X1137790Y904910*
X1137124Y903919*
X1136893Y902749*
Y885098*
X1136154Y884560*
X1134884Y885065*
Y919525*
X1149494Y934135*
X1150871Y933716*
G37*
G36*
X1191254Y893648D02*
D01*
X1192245Y892985*
X1193416Y892751*
X1203904*
X1203932Y892680*
X1204114Y891481*
X1202535Y890424*
X1201318Y888606*
X1200891Y886460*
X1200985Y885992*
X1198778Y883785*
X1177272*
X1176230Y885055*
X1176263Y885215*
X1175992Y886581*
X1175232Y887717*
X1175992Y888850*
X1176263Y890216*
X1175992Y891580*
X1175232Y892716*
X1175992Y893851*
X1176263Y895215*
X1175992Y896581*
X1175232Y897717*
X1175992Y898850*
X1176263Y900216*
X1176149Y900790*
X1177081Y902060*
X1182839*
X1191254Y893648*
G37*
G36*
X1287261Y883345D02*
Y879759D01*
X1285991Y879373*
X1285394Y880264*
X1283576Y881481*
X1281430Y881908*
X1279283Y881481*
X1277465Y880264*
X1276248Y878446*
X1275821Y876300*
X1276248Y874153*
X1277465Y872335*
X1278310Y871768*
Y852728*
Y852726*
X1278544Y851557*
X1279207Y850564*
X1282400Y847371*
Y838050*
Y837079*
Y836780*
Y824080*
X1294399*
Y832248*
X1295290Y832985*
X1296400Y832510*
Y824080*
X1308399*
Y831532*
X1308986Y832121*
X1321368*
Y826208*
X1312085Y816924*
X1311092Y815436*
X1310741Y813678*
Y794539*
X1295430*
Y780539*
X1294180Y780488*
X1288856*
X1273751Y795594*
X1272758Y796256*
X1271587Y796490*
X1219768*
X1217373Y798885*
X1218384Y799896*
Y799899*
X1218455Y799967*
X1218565Y800133*
X1218641Y800315*
X1218679Y800508*
Y800641*
X1218676Y800704*
X1218666Y800768*
X1218653Y800831*
X1218646Y800862*
X1218653Y800889*
Y800892*
X1218666Y800955*
X1218676Y801019*
Y801047*
X1218679Y801082*
Y801215*
X1218641Y801408*
X1218565Y801590*
X1218455Y801756*
X1218384Y801824*
X1171143Y849068*
X1171000Y849210*
X1170632Y849363*
X1170231*
X1169863Y849210*
X1169769Y849116*
X1169090Y848438*
X1167820*
X1155882Y860376*
X1156408Y861646*
X1172695*
X1174059Y861918*
X1175217Y862693*
X1175992Y863851*
X1176263Y865215*
X1176230Y865378*
X1177272Y866648*
X1195537*
X1196017Y866551*
X1213741*
X1216708Y863584*
X1216177Y862302*
X1215847Y859790*
X1216177Y857277*
X1217147Y854938*
X1218689Y852929*
X1220698Y851387*
X1223037Y850417*
X1225550Y850087*
X1228062Y850417*
X1230401Y851387*
X1232410Y852929*
X1233952Y854938*
X1234922Y857277*
X1235252Y859790*
X1234922Y862302*
X1233952Y864641*
X1232410Y866650*
X1230401Y868192*
X1228062Y869162*
X1225550Y869492*
X1223037Y869162*
X1221755Y868631*
X1217983Y872403*
X1218003Y872596*
X1221755Y876348*
X1223037Y875817*
X1225550Y875487*
X1228062Y875817*
X1230401Y876787*
X1232410Y878329*
X1233952Y880338*
X1234922Y882677*
X1235252Y885190*
X1234922Y887702*
X1233952Y890041*
X1232847Y891481*
X1233474Y892751*
X1277856*
X1287261Y883345*
G37*
G36*
X1396105Y903345D02*
X1396108D01*
X1397099Y902682*
X1398270Y902451*
X1410970*
X1412140Y902682*
X1413134Y903345*
X1416944Y907158*
X1417607Y908149*
X1417812Y909185*
X1419082Y909058*
Y864229*
X1392560Y837707*
X1367790*
X1366034Y837359*
X1364546Y836363*
X1360459Y832279*
X1349369*
Y839190*
Y846650*
X1349910*
Y850419*
X1335369*
X1320830*
Y847257*
X1308399*
Y850712*
Y851049*
X1308369Y851969*
Y864969*
X1298427*
Y885220*
X1298196Y886391*
X1297533Y887382*
X1295021Y889894*
X1295438Y891273*
X1296276Y891438*
X1298094Y892655*
X1299311Y894473*
X1299738Y896620*
X1299311Y898766*
X1298094Y900584*
X1296276Y901801*
X1294130Y902228*
X1293060Y902014*
X1276769Y918306*
X1277254Y919480*
X1379974*
X1396105Y903345*
G37*
G36*
X1150719Y840331D02*
X1152537Y839114D01*
X1154684Y838687*
X1155753Y838901*
X1157015Y837638*
X1156929Y836277*
X1156797Y836048*
X1156728Y835794*
Y835533*
X1156761Y835406*
X1156728Y835279*
Y835017*
X1156797Y834763*
X1156929Y834534*
X1157023Y834443*
X1204267Y787199*
X1204407Y787057*
X1204775Y786904*
X1205176*
X1205544Y787057*
X1205671Y787184*
X1206601Y788052*
X1208145Y786505*
X1208620Y786190*
X1208234Y784920*
X1185458*
Y779538*
X1174958*
X1150378Y804118*
Y817880*
X1150239Y818575*
X1150541Y818936*
X1151348Y819497*
X1152144Y819340*
Y825246*
Y831151*
X1151056Y830935*
X1150124Y830313*
X1148854Y830991*
Y840833*
X1150124Y841220*
X1150719Y840331*
G37*
G36*
X1038247Y901125D02*
X1039124Y900216D01*
X1039395Y898850*
X1040155Y897717*
X1039395Y896581*
X1039124Y895215*
X1039395Y893851*
X1040155Y892716*
X1039395Y891580*
X1039124Y890216*
X1039395Y888850*
X1039848Y888174*
X1039782Y888128*
X1038887Y886792*
X1038826Y886485*
X1051694*
Y883945*
X1038826*
X1038887Y883640*
X1039782Y882302*
X1039848Y882258*
X1039395Y881580*
X1039124Y880216*
X1039395Y878850*
X1040155Y877714*
X1039395Y876581*
X1039124Y875215*
X1039395Y873851*
X1040155Y872716*
X1039395Y871580*
X1039124Y870216*
X1039395Y868850*
X1040155Y867714*
X1039395Y866581*
X1039124Y865215*
X1039395Y863851*
X1040170Y862693*
X1041328Y861918*
X1042692Y861646*
X1060693*
X1061720Y861852*
X1062990Y861128*
Y858520*
X1066330*
X1067010Y857250*
X1066896Y857082*
X1066624Y855715*
Y837714*
X1066896Y836350*
X1067671Y835192*
X1068829Y834420*
X1070193Y834146*
X1071559Y834420*
X1072235Y834870*
X1072281Y834804*
X1073617Y833909*
X1073924Y833848*
Y846716*
X1076464*
Y833013*
X1076624Y832881*
Y821321*
X1060241Y804938*
X1030269*
Y807869*
Y808840*
Y816292*
X1033762Y819787*
X1034536Y820943*
X1034808Y822309*
Y898951*
X1037031Y901176*
X1038247Y901125*
G37*
G36*
X1283769Y771265D02*
X1284762Y770602D01*
X1285933Y770371*
X1295430*
Y763267*
X1276141Y743978*
X1235918*
X1214150Y765746*
X1214635Y766919*
X1222461*
Y784920*
X1223444Y785611*
X1269425*
X1283769Y771265*
G37*
%LNpcb_cloud_controller-4*%
%LPC*%
G36*
X1244600Y1046035D02*
Y1041400D01*
X1249235*
X1249019Y1042487*
X1247683Y1044483*
X1245687Y1045819*
X1244600Y1046035*
G37*
G36*
X1242060D02*
X1240972Y1045819D01*
X1238976Y1044483*
X1237640Y1042487*
X1237424Y1041400*
X1242060*
Y1046035*
G37*
G36*
X1177290D02*
Y1041400D01*
X1181925*
X1181709Y1042487*
X1180373Y1044483*
X1178377Y1045819*
X1177290Y1046035*
G37*
G36*
X1174750D02*
X1173662Y1045819D01*
X1171666Y1044483*
X1170330Y1042487*
X1170114Y1041400*
X1174750*
Y1046035*
G37*
G36*
X1375410Y1044765D02*
Y1040130D01*
X1380045*
X1379829Y1041217*
X1378493Y1043213*
X1376497Y1044549*
X1375410Y1044765*
G37*
G36*
X1372870D02*
X1371782Y1044549D01*
X1369786Y1043213*
X1368450Y1041217*
X1368234Y1040130*
X1372870*
Y1044765*
G37*
G36*
X1315720D02*
Y1040130D01*
X1320355*
X1320139Y1041217*
X1318803Y1043213*
X1316807Y1044549*
X1315720Y1044765*
G37*
G36*
X1313180D02*
X1312092Y1044549D01*
X1310096Y1043213*
X1308760Y1041217*
X1308544Y1040130*
X1313180*
Y1044765*
G37*
G36*
X1249235Y1038860D02*
X1244600D01*
Y1034224*
X1245687Y1034440*
X1247683Y1035776*
X1249019Y1037772*
X1249235Y1038860*
G37*
G36*
X1242060D02*
X1237424D01*
X1237640Y1037772*
X1238976Y1035776*
X1240972Y1034440*
X1242060Y1034224*
Y1038860*
G37*
G36*
X1181925D02*
X1177290D01*
Y1034224*
X1178377Y1034440*
X1180373Y1035776*
X1181709Y1037772*
X1181925Y1038860*
G37*
G36*
X1174750D02*
X1170114D01*
X1170330Y1037772*
X1171666Y1035776*
X1173662Y1034440*
X1174750Y1034224*
Y1038860*
G37*
G36*
X1380045Y1037590D02*
X1375410D01*
Y1032954*
X1376497Y1033170*
X1378493Y1034506*
X1379829Y1036502*
X1380045Y1037590*
G37*
G36*
X1372870D02*
X1368234D01*
X1368450Y1036502*
X1369786Y1034506*
X1371782Y1033170*
X1372870Y1032954*
Y1037590*
G37*
G36*
X1320355D02*
X1315720D01*
Y1032954*
X1316807Y1033170*
X1318803Y1034506*
X1320139Y1036502*
X1320355Y1037590*
G37*
G36*
X1313180D02*
X1308544D01*
X1308760Y1036502*
X1310096Y1034506*
X1312092Y1033170*
X1313180Y1032954*
Y1037590*
G37*
G36*
X1079500Y1018095D02*
Y1013460D01*
X1084135*
X1083919Y1014547*
X1082583Y1016543*
X1080587Y1017879*
X1079500Y1018095*
G37*
G36*
X1076960D02*
X1075872Y1017879D01*
X1073876Y1016543*
X1072540Y1014547*
X1072324Y1013460*
X1076960*
Y1018095*
G37*
G36*
X1286510Y1008679D02*
X1278740D01*
Y1007772*
X1278310Y1006680*
X1277470*
X1272540*
Y1000140*
Y993599*
X1277470*
X1278740*
X1279580*
X1286510*
Y1001141*
Y1008679*
G37*
G36*
X1264229Y1006680D02*
X1263070D01*
X1262959*
X1257300*
Y1000140*
Y993599*
X1262959*
X1263070*
X1264229*
X1264340*
X1270000*
Y1000140*
Y1006680*
X1264340*
X1264229*
G37*
G36*
X1248989D02*
X1247830D01*
X1247719*
X1242060*
Y1000140*
Y993599*
X1247719*
X1247830*
X1248989*
X1249100*
X1254760*
Y1000140*
Y1006680*
X1249100*
X1248989*
G37*
G36*
X1219779D02*
X1218620D01*
X1218509*
X1212850*
Y1000140*
Y993599*
X1218509*
X1218620*
X1219779*
X1219890*
X1225550*
Y1000140*
Y1006680*
X1219890*
X1219779*
G37*
G36*
X1076960Y1010920D02*
X1072324D01*
X1072540Y1009832*
X1073876Y1007836*
X1075872Y1006500*
X1076960Y1006284*
Y1010920*
G37*
G36*
X1296819Y1008679D02*
X1289050D01*
Y1002411*
X1296819*
Y1008679*
G37*
G36*
X1376680Y1006665D02*
Y1002030D01*
X1381315*
X1381099Y1003117*
X1379763Y1005113*
X1377767Y1006449*
X1376680Y1006665*
G37*
G36*
X1374140D02*
X1373052Y1006449D01*
X1371056Y1005113*
X1369720Y1003117*
X1369504Y1002030*
X1374140*
Y1006665*
G37*
G36*
X1315720D02*
Y1002030D01*
X1320355*
X1320139Y1003117*
X1318803Y1005113*
X1316807Y1006449*
X1315720Y1006665*
G37*
G36*
X1313180D02*
X1312092Y1006449D01*
X1310096Y1005113*
X1308760Y1003117*
X1308544Y1002030*
X1313180*
Y1006665*
G37*
G36*
X1181100D02*
Y1002030D01*
X1185735*
X1185519Y1003117*
X1184183Y1005113*
X1182187Y1006449*
X1181100Y1006665*
G37*
G36*
X1195070Y1006680D02*
X1189299D01*
Y1001410*
X1195070*
Y1006680*
G37*
G36*
X1084135Y1010920D02*
X1079500D01*
Y1006284*
X1080482Y1006480*
X1080587Y1006500*
X1081552Y1007127*
X1082619Y1006332*
Y1005626*
Y1001410*
X1088390*
Y1006680*
X1083779*
X1083142*
X1083104Y1006756*
X1082680Y1007872*
X1083282Y1008880*
X1083919Y1009832*
X1084135Y1010920*
G37*
G36*
X1381315Y999490D02*
X1376680D01*
Y994854*
X1377767Y995070*
X1379763Y996406*
X1381099Y998402*
X1381315Y999490*
G37*
G36*
X1374140D02*
X1369504D01*
X1369720Y998402*
X1371056Y996406*
X1373052Y995070*
X1374140Y994854*
Y999490*
G37*
G36*
X1320355D02*
X1315720D01*
Y994854*
X1316807Y995070*
X1318803Y996406*
X1320139Y998402*
X1320355Y999490*
G37*
G36*
X1313180D02*
X1308544D01*
X1308760Y998402*
X1310096Y996406*
X1312092Y995070*
X1313180Y994854*
Y999490*
G37*
G36*
X1185735D02*
X1181100D01*
Y994854*
X1182187Y995070*
X1184183Y996406*
X1185519Y998402*
X1185735Y999490*
G37*
G36*
X1204539Y1006680D02*
X1203380D01*
X1203269*
X1197610*
Y1000140*
Y993599*
X1203269*
X1203380*
X1204539*
X1204650*
X1210310*
Y1000140*
Y1006680*
X1204650*
X1204539*
G37*
G36*
X1195070Y998870D02*
X1189299D01*
Y993599*
X1195070*
Y998870*
G37*
G36*
X1228090Y1006680D02*
Y1000140D01*
Y993599*
X1239520*
Y1000140*
Y1006680*
X1228090*
G37*
G36*
X1296819Y999871D02*
X1289050D01*
Y993599*
X1296819*
Y999871*
G37*
G36*
X1088390Y998870D02*
X1082619D01*
Y993599*
X1088390*
Y998870*
G37*
G36*
X1179830Y982535D02*
Y977900D01*
X1184465*
X1184249Y978987*
X1182913Y980983*
X1180917Y982319*
X1179830Y982535*
G37*
G36*
X1177290D02*
X1176202Y982319D01*
X1174206Y980983*
X1172870Y978987*
X1172654Y977900*
X1177290*
Y982535*
G37*
G36*
X1402080Y980239D02*
X1400728Y980061D01*
X1398287Y979050*
X1396189Y977440*
X1394579Y975342*
X1393568Y972901*
X1393390Y971550*
X1402080*
Y980239*
G37*
G36*
X1184465Y975360D02*
X1179830D01*
Y970724*
X1180917Y970940*
X1182913Y972276*
X1184249Y974272*
X1184465Y975360*
G37*
G36*
X1177290D02*
X1172654D01*
X1172870Y974272*
X1174206Y972276*
X1176202Y970940*
X1177290Y970724*
Y975360*
G37*
G36*
X1376680Y974915D02*
Y970280D01*
X1381315*
X1381099Y971367*
X1379763Y973363*
X1377767Y974699*
X1376680Y974915*
G37*
G36*
X1374140D02*
X1373052Y974699D01*
X1371056Y973363*
X1369720Y971367*
X1369504Y970280*
X1374140*
Y974915*
G37*
G36*
X1381315Y967740D02*
X1376680D01*
Y963104*
X1377767Y963320*
X1379763Y964656*
X1381099Y966652*
X1381315Y967740*
G37*
G36*
X1374140D02*
X1369504D01*
X1369720Y966652*
X1371056Y964656*
X1373052Y963320*
X1374140Y963104*
Y967740*
G37*
G36*
X1402080Y969010D02*
X1393390D01*
X1393568Y967658*
X1394579Y965217*
X1396189Y963119*
X1398287Y961509*
X1400728Y960498*
X1402080Y960320*
Y969010*
G37*
G36*
X1198880Y955865D02*
X1197792Y955649D01*
X1195796Y954313*
X1194460Y952317*
X1194244Y951230*
X1198880*
Y955865*
G37*
G36*
X1123950Y938085D02*
Y933450D01*
X1128585*
X1128369Y934537*
X1127033Y936533*
X1125037Y937869*
X1123950Y938085*
G37*
G36*
X1121410D02*
X1120322Y937869D01*
X1118326Y936533*
X1116990Y934537*
X1116774Y933450*
X1121410*
Y938085*
G37*
G36*
X1085850D02*
Y933450D01*
X1090485*
X1090269Y934537*
X1088933Y936533*
X1086937Y937869*
X1085850Y938085*
G37*
G36*
X1128585Y930910D02*
X1123950D01*
Y926274*
X1125037Y926490*
X1127033Y927826*
X1128369Y929822*
X1128585Y930910*
G37*
G36*
X1121410D02*
X1116774D01*
X1116990Y929822*
X1118326Y927826*
X1120322Y926490*
X1121410Y926274*
Y930910*
G37*
G36*
X1090485D02*
X1085850D01*
Y926274*
X1086937Y926490*
X1088933Y927826*
X1090269Y929822*
X1090485Y930910*
G37*
G36*
X1122680Y896175D02*
X1121592Y895959D01*
X1119596Y894623*
X1118260Y892627*
X1118044Y891540*
X1122680*
Y896175*
G37*
G36*
X1085850D02*
Y891540D01*
X1090485*
X1090269Y892627*
X1088933Y894623*
X1086937Y895959*
X1085850Y896175*
G37*
G36*
X1122680Y889000D02*
X1118044D01*
X1118260Y887912*
X1119596Y885916*
X1121592Y884580*
X1122680Y884364*
Y889000*
G37*
G36*
X1090485D02*
X1085850D01*
Y884364*
X1086937Y884580*
X1088933Y885916*
X1090269Y887912*
X1090485Y889000*
G37*
G36*
X1147500Y1006680D02*
X1141730D01*
Y1001410*
X1147500*
Y1006680*
G37*
G36*
X1155700D02*
X1149929D01*
Y1001410*
X1155700*
Y1006680*
G37*
G36*
X1139190D02*
X1133419D01*
Y1001410*
X1139190*
Y1006680*
G37*
G36*
X1304290Y819975D02*
Y815340D01*
X1308925*
X1308709Y816427*
X1307373Y818423*
X1305377Y819759*
X1304290Y819975*
G37*
G36*
X1301750D02*
X1300662Y819759D01*
X1298666Y818423*
X1297330Y816427*
X1297114Y815340*
X1301750*
Y819975*
G37*
G36*
X1308925Y812800D02*
X1304290D01*
Y808164*
X1305377Y808380*
X1307373Y809716*
X1308709Y811712*
X1308925Y812800*
G37*
G36*
X1301750D02*
X1297114D01*
X1297330Y811712*
X1298666Y809716*
X1300662Y808380*
X1301750Y808164*
Y812800*
G37*
G36*
X1379220Y905065D02*
Y900430D01*
X1383855*
X1383639Y901517*
X1382303Y903513*
X1380307Y904849*
X1379220Y905065*
G37*
G36*
X1376680D02*
X1375592Y904849D01*
X1373596Y903513*
X1372260Y901517*
X1372044Y900430*
X1376680*
Y905065*
G37*
G36*
X1383855Y897890D02*
X1379220D01*
Y893254*
X1380307Y893470*
X1382303Y894806*
X1383639Y896802*
X1383855Y897890*
G37*
G36*
X1376680D02*
X1372044D01*
X1372260Y896802*
X1373596Y894806*
X1375592Y893470*
X1376680Y893254*
Y897890*
G37*
G36*
X1360408Y900729D02*
X1349138D01*
Y889459*
X1360408*
Y900729*
G37*
G36*
X1346598D02*
X1335328D01*
Y889459*
X1346598*
Y900729*
G37*
G36*
X1414868Y900191D02*
X1390870D01*
Y876190*
X1414868*
Y900191*
G37*
G36*
X1346598Y886919D02*
X1335328D01*
Y875649*
X1346598*
Y886919*
G37*
G36*
X1360995Y875030D02*
X1356360D01*
Y870394*
X1357447Y870610*
X1359443Y871946*
X1360779Y873942*
X1360995Y875030*
G37*
G36*
X1360408Y886919D02*
X1349138D01*
Y875253*
X1349400Y873942*
X1350736Y871946*
X1352732Y870610*
X1353820Y870394*
Y876300*
X1355090*
Y877570*
X1360995*
X1360779Y878657*
X1360408Y879210*
Y886919*
G37*
G36*
X1349910Y864730D02*
X1336639D01*
Y860958*
X1349910*
Y864730*
G37*
G36*
X1334099D02*
X1320830D01*
Y860958*
X1334099*
Y864730*
G37*
G36*
X1372870Y872246D02*
X1371173Y872022D01*
X1369590Y871367*
X1368234Y870325*
X1367193Y868967*
X1366537Y867387*
X1366314Y865687*
X1366537Y863991*
X1367193Y862411*
X1368234Y861052*
X1369590Y860010*
X1371173Y859355*
X1372870Y859132*
X1374566Y859355*
X1376149Y860010*
X1377505Y861052*
X1378546Y862411*
X1379202Y863991*
X1379425Y865687*
X1379202Y867387*
X1378546Y868967*
X1377505Y870325*
X1376149Y871367*
X1374566Y872022*
X1372870Y872246*
G37*
G36*
X1349910Y858418D02*
X1335369D01*
X1320830*
Y854649*
Y852959*
X1335369*
X1349910*
Y854649*
Y858418*
G37*
G36*
X1154684Y831151D02*
Y826516D01*
X1159319*
X1159103Y827603*
X1157767Y829599*
X1155771Y830935*
X1154684Y831151*
G37*
G36*
X1159319Y823976D02*
X1154684D01*
Y819340*
X1155771Y819556*
X1157767Y820892*
X1159103Y822888*
X1159319Y823976*
G37*
G36*
X1047750Y847915D02*
Y843280D01*
X1052385*
X1052169Y844367*
X1050833Y846363*
X1048837Y847699*
X1047750Y847915*
G37*
G36*
X1045210D02*
X1044122Y847699D01*
X1042126Y846363*
X1040790Y844367*
X1040574Y843280*
X1045210*
Y847915*
G37*
G36*
X1052385Y840740D02*
X1047750D01*
Y836104*
X1048837Y836320*
X1050833Y837656*
X1052169Y839652*
X1052385Y840740*
G37*
G36*
X1045210D02*
X1040574D01*
X1040790Y839652*
X1042126Y837656*
X1044122Y836320*
X1045210Y836104*
Y840740*
G37*
G36*
X1267429Y783038D02*
X1236428D01*
Y746041*
X1267429*
Y783038*
G37*
%LNpcb_cloud_controller-5*%
%LPD*%
G54D13*
X1129030Y815340D02*
X1137920Y824230D01*
X1139692Y846716D02*
Y857580D01*
Y846716D02*
X1140193D01*
X1132403Y864870D02*
X1139692Y857580D01*
X1130554Y864870D02*
X1132403D01*
X1139952Y880110D02*
Y902749D01*
X1151917Y914714*
X1162939*
X1163439Y915215*
X1154684Y844296D02*
X1210310Y788670D01*
X1366329Y777430D02*
X1405890Y737870D01*
X1153195Y910336D02*
X1158748D01*
X1271587Y793432D02*
X1287589Y777430D01*
X1218501Y793432D02*
X1271587D01*
X1149939Y861994D02*
X1218501Y793432D01*
X1149939Y861994D02*
Y907079D01*
X1153195Y910336*
X1210310Y788670D02*
X1270693D01*
X1285933Y773430*
X1139939Y958715D02*
Y972195D01*
X1063790Y910120D02*
X1068070Y914400D01*
Y927862*
X1124899Y827100D02*
Y845118D01*
X1121410Y823610D02*
X1124899Y827100D01*
X1021080Y908669D02*
X1027529Y915118D01*
X984250Y878570D02*
X1014349Y908669D01*
X982091Y880729D02*
X984250Y878570D01*
X951230Y880729D02*
X982091D01*
X1197211Y935118D02*
X1200150Y932180D01*
X1129030Y782320D02*
Y815340D01*
X1107440Y760730D02*
X1129030Y782320D01*
X1061720Y948690D02*
Y986790D01*
X1396809Y1027620D02*
X1403350Y1021080D01*
X1141539Y1027620D02*
X1396809D01*
X1136650Y1032510D02*
X1141539Y1027620D01*
X1121410Y1029853D02*
Y1055370D01*
X1136650Y1070610*
X1200449*
X1116330Y1073726D02*
X1132065Y1089464D01*
X1038860Y1090930D02*
X1052830Y1076960D01*
X1168400Y756920D02*
Y760079D01*
X1164590Y760730D02*
X1168400Y756920D01*
X1164590Y760730D02*
Y775970D01*
X1137920Y802640D02*
X1164590Y775970D01*
X1093470Y760730D02*
X1107440D01*
X1062990Y754380D02*
Y765822D01*
X1094900Y797735*
X984250Y807720D02*
X991870Y815340D01*
X1010269*
X1269540Y921209D02*
X1294130Y896620D01*
X1193340Y921209D02*
X1269540D01*
X1290320Y857250D02*
Y860419D01*
X1393190Y723900D02*
X1404620Y712470D01*
X1393190Y723900D02*
Y744220D01*
X1363980Y773430D02*
X1393190Y744220D01*
X1410970Y905510D02*
X1414780Y909320D01*
X1398270Y905510D02*
X1410970D01*
X1378536Y925243D02*
X1398270Y905510D01*
X1403350Y995680D02*
X1414780Y984250D01*
Y909320D02*
Y984250D01*
X1285933Y773430D02*
X1363980D01*
X1287589Y777430D02*
X1366329D01*
X1281369Y876239D02*
X1281430Y876300D01*
X1281369Y852726D02*
Y876239D01*
Y852726D02*
X1288399Y845698D01*
Y844550D02*
Y845698D01*
X1290320Y860419D02*
X1291369Y861468D01*
X1288369Y858469D02*
X1290320Y860419D01*
Y884613*
X1279123Y895809D02*
X1290320Y884613D01*
X1280779Y899810D02*
X1295369Y885220D01*
Y852726D02*
Y885220D01*
X1288399Y830580D02*
X1295400Y837580D01*
X1295369Y852726D02*
D01*
Y850323D02*
Y852726D01*
Y850323D02*
X1295400Y850292D01*
Y837580D02*
Y850292D01*
X1193416Y895809D02*
X1279123D01*
X1286360Y858619D02*
X1286510Y858469D01*
X1195075Y899810D02*
X1280779D01*
X1001268Y1015492D02*
Y1042670D01*
X1021080Y922670D02*
X1023630Y920120D01*
X983869Y922670D02*
X1021080D01*
X951230Y921400D02*
X978281D01*
X1023630Y920120D02*
X1049898D01*
X1014349Y908669D02*
X1021080D01*
X1052830Y1076960D02*
X1097280D01*
X1111250Y1062990*
Y993759D02*
Y1062990D01*
X1200449Y1070610D02*
X1219499Y1089660D01*
X1137920Y1065530D02*
X1243330D01*
X1126490Y1054100D02*
X1137920Y1065530D01*
X1243330D02*
X1267460Y1089660D01*
X1307129*
X1049898Y910120D02*
X1063790D01*
X1012190Y754380D02*
Y762000D01*
X1028598Y778408*
X1037590Y754380D02*
Y762000D01*
X1049314Y773724*
X1031890Y984869D02*
X1041400D01*
X1001268Y1015492D02*
X1031890Y984869D01*
X1027529Y915118D02*
X1049898D01*
X1116330Y993759D02*
Y1073726D01*
X1164899Y935118D02*
X1197211D01*
X1103630Y986139D02*
X1111250Y993759D01*
X1103630Y986139D02*
X1110914D01*
X1124899Y972154*
Y960120D02*
Y972154D01*
X1137920Y802640D02*
Y809609D01*
X1050290Y1007110D02*
X1075690Y1032510D01*
X1102360*
X1131643Y1019619D02*
X1161663D01*
X1121410Y1029853D02*
X1131643Y1019619D01*
X1161663D02*
X1166939Y1014343D01*
X1163320Y1023620D02*
X1170940Y1016000D01*
X1133299Y1023620D02*
X1163320D01*
X1126490Y1030429D02*
X1133299Y1023620D01*
X1116330Y993759D02*
X1123950Y986139D01*
X1166939Y996124D02*
Y1014343D01*
X1163955Y993140D02*
X1166939Y996124D01*
X1126490Y1030429D02*
Y1054100D01*
X1147460Y993140D02*
X1163955D01*
X1140460Y986139D02*
X1147460Y993140D01*
X1165209Y986139D02*
X1170940Y991870D01*
X1156970Y986139D02*
X1165209D01*
X1170940Y991870D02*
Y1016000D01*
X1153883Y986139D02*
X1156970D01*
X1050290Y984869D02*
X1059180D01*
X1041400D02*
X1050290D01*
Y1007110*
X1139939Y972195D02*
X1153883Y986139D01*
X1195656Y925243D02*
X1378536D01*
X1189431Y925118D02*
X1193340Y921209D01*
X1190779Y930120D02*
X1195656Y925243D01*
X1164899Y930120D02*
X1190779D01*
X1164899Y925118D02*
X1189431D01*
X1184107Y905118D02*
X1193416Y895809D01*
X1164899Y905118D02*
X1184107D01*
X1174762Y920120D02*
X1195075Y899810D01*
X1164899Y920120D02*
X1174762D01*
X978281Y921400D02*
X981710Y924829D01*
X983869Y922670*
X1028598Y778408D02*
X1064260D01*
X1084900Y799048*
Y845118*
X1049314Y773724D02*
X1065235D01*
X1089901Y798390*
Y845118*
X1094900Y797735D02*
Y845118D01*
X1089901Y960120D02*
Y983841D01*
X1123950Y986139D02*
X1129901Y980191D01*
Y960120D02*
Y980191D01*
X1134899Y980579D02*
X1140460Y986139D01*
X1134899Y960120D02*
Y980579D01*
G54D17*
X1070193Y958715D03*
X1075194D03*
X1080193D03*
X1085194D03*
X1090193D03*
X1095194D03*
X1100193D03*
X1105194D03*
X1110193D03*
X1115194D03*
X1120193D03*
X1125194D03*
X1130193D03*
X1135194D03*
X1140193D03*
X1145194D03*
Y846716D03*
X1140193D03*
X1135194D03*
X1130193D03*
X1125194D03*
X1120193D03*
X1115194D03*
X1110193D03*
X1105194D03*
X1100193D03*
X1095194D03*
X1090193D03*
X1085194D03*
X1080193D03*
X1075194D03*
X1070193D03*
G54D18*
X1163693Y940216D03*
Y935215D03*
Y930216D03*
Y925215D03*
Y920216D03*
Y915215D03*
Y910216D03*
Y905215D03*
Y900216D03*
Y895215D03*
Y890216D03*
Y885215D03*
Y880216D03*
Y875215D03*
Y870216D03*
Y865215D03*
X1051694D03*
Y870216D03*
Y875215D03*
Y880216D03*
Y885215D03*
Y890216D03*
Y895215D03*
Y900216D03*
Y905215D03*
Y910216D03*
Y915215D03*
Y920216D03*
Y925215D03*
Y930216D03*
Y935215D03*
Y940216D03*
G54D19*
X1121410Y809609D03*
Y823610D03*
X1089660Y986139D03*
Y1000140D03*
X951230Y921400D03*
Y907399D03*
X1022350Y908669D03*
Y922670D03*
X951230Y894730D03*
Y880729D03*
X1059180Y984869D03*
Y998870D03*
X1041400Y984869D03*
Y998870D03*
X1271270Y1000140D03*
Y986139D03*
X1256030Y1000140D03*
Y986139D03*
X1240790Y1000140D03*
Y986139D03*
X1226820Y1000140D03*
Y986139D03*
X1211580Y1000140D03*
Y986139D03*
X1196340Y1000140D03*
Y986139D03*
X1137920Y809609D03*
Y823610D03*
X1140460Y1000140D03*
Y986139D03*
X1156970Y1000140D03*
Y986139D03*
X1103630Y1000140D03*
Y986139D03*
X1123950Y1000140D03*
Y986139D03*
G54D20*
X1024270Y801370D03*
X1010269D03*
X1288399Y830580D03*
X1302400D03*
X1288399Y844550D03*
X1302400D03*
X1288369Y858469D03*
X1302369D03*
X1024270Y815340D03*
X1010269D03*
G54D21*
X1287780Y985139D03*
Y1001141D03*
G54D22*
X1310929Y741540D03*
Y764540D03*
Y787539D03*
G54D23*
X1251930Y764540D03*
G54D24*
X1203960Y775919D03*
Y737920D03*
G54D46*
X1402869Y888189D03*
Y799190D03*
X1347868D03*
Y888189D03*
G54D47*
X1335369Y827689D03*
Y835690D03*
Y843688D03*
Y851689D03*
Y859688D03*
G54D48*
X1209040Y985139D02*
X1287780D01*
X1209040D02*
Y986790D01*
X1150528Y940216D02*
X1174511D01*
X1198880Y775970D02*
X1234440Y740410D01*
X1145286Y827786D02*
Y866394D01*
X1069901Y939800D02*
Y960120D01*
X1051440Y940216D02*
X1069484D01*
X1077635Y872378D02*
X1080193Y869820D01*
X1077468Y872545D02*
X1077635Y872378D01*
X1069797Y880216D02*
X1077468Y872545D01*
X1080193Y846716D02*
Y869820D01*
X1051694Y880216D02*
X1069797D01*
X1077635Y872378D02*
X1131316D01*
X1077468Y872545D02*
Y932233D01*
X1080193Y819843D02*
Y846716D01*
X1139301Y872378D02*
X1145286Y866394D01*
X1051440Y880216D02*
X1051694D01*
X1200160Y880120D02*
X1206500Y886460D01*
X1200063Y880216D02*
X1200160Y880120D01*
X1131316Y872378D02*
X1139301D01*
X1131316D02*
Y921004D01*
X1150528Y940216*
X1198090Y875118D02*
X1215478D01*
X1197993Y875215D02*
X1198090Y875118D01*
X1196017Y870120D02*
X1215219D01*
X1195920Y870216D02*
X1196017Y870120D01*
X1163439Y870216D02*
X1195920D01*
X1163439Y875215D02*
X1197993D01*
X1163439Y880216D02*
X1200063D01*
X1174607Y940120D02*
X1221419D01*
X1174511Y940216D02*
X1174607Y940120D01*
X1145286Y960120D02*
X1192530D01*
X1051440Y940216D02*
D01*
X1069901Y939800D02*
X1077468Y932233D01*
X1036025Y905215D02*
X1051440D01*
X1031240Y900430D02*
X1036025Y905215D01*
X1141079Y823610D02*
X1146810Y817880D01*
Y802640D02*
Y817880D01*
X1141079Y823610D02*
X1141110D01*
X1145286Y827786*
X1221419Y940120D02*
X1225550Y935990D01*
X1209040Y952500D02*
X1221419Y940120D01*
X1209040Y952500D02*
Y985139D01*
X1197340D02*
X1209040D01*
X1196340Y986139D02*
X1197340Y985139D01*
X1137920Y823610D02*
X1141079D01*
X1140460Y824230D02*
X1141079Y823610D01*
X1310929Y764540D02*
X1315328D01*
X1301750D02*
X1310929D01*
X1277620Y740410D02*
X1301750Y764540D01*
X1234440Y740410D02*
X1277620D01*
X1173480Y775970D02*
X1198880D01*
X1088390Y755650D02*
X1093470Y760730D01*
X1215478Y875118D02*
X1225550Y885190D01*
X1215219Y870120D02*
X1225550Y859790D01*
X1386840Y935990D02*
X1403350Y919480D01*
X1225550Y935990D02*
X1386840D01*
X1244600Y944880D02*
X1403350D01*
X1228090Y961390D02*
X1244600Y944880D01*
X1302369Y858469D02*
X1302400Y858438D01*
Y844550D02*
Y858438D01*
Y830580D02*
X1307510Y835690D01*
X1335369*
X1302400Y844550D02*
X1303261Y843688D01*
X1335369*
X1031240Y822309D02*
Y900430D01*
X1024270Y815340D02*
X1031240Y822309D01*
X1069484Y940216D02*
X1069901Y939800D01*
X1024270Y801370D02*
X1061720D01*
X1080193Y819843*
X1146810Y802640D02*
X1173480Y775970D01*
X1192530Y960120D02*
X1193800Y961390D01*
X1219200D02*
X1228090D01*
X1069898Y960120D02*
Y988151D01*
X1059180Y998870D02*
X1069898Y988151D01*
G54D49*
X1315328Y787539D02*
Y813678D01*
X1329339Y827689D02*
X1335369D01*
X1315328Y813678D02*
X1329339Y827689D01*
X1336040Y1090930D02*
X1366520Y1060450D01*
X1318260Y1108710D02*
X1336040Y1090930D01*
X1263650Y1108710D02*
X1318260D01*
X1366520Y1060450D02*
X1418590D01*
X1332529Y1090930D02*
X1336040D01*
X1418590Y1060450D02*
X1423670Y1055370D01*
Y862330D02*
Y1055370D01*
X1394460Y833120D02*
X1423670Y862330D01*
X1335369Y827689D02*
X1362359D01*
X1367790Y833120*
X1394460*
X1176020Y1108710D02*
X1263650D01*
Y1108410D02*
Y1108710D01*
X1244899Y1089660D02*
X1263650Y1108410D01*
X1086149Y1108710D02*
X1176020D01*
X1157269Y1089959D02*
X1176020Y1108710D01*
X1157269Y1089660D02*
Y1089959D01*
X1067099Y1089660D02*
X1086149Y1108710D01*
G54D50*
X1116330Y693420D02*
X1203960D01*
X1087120Y664210D02*
X1116330Y693420D01*
X1292860D02*
X1323340Y662940D01*
X1203960Y693420D02*
X1292860D01*
X1203960Y666750D02*
Y693420D01*
X1154430Y658469D02*
X1157020Y661060D01*
X1154430Y633730D02*
X1242720D01*
X1066241D02*
X1154430D01*
Y658469*
X1242720Y633730D02*
X1272590Y663600D01*
X1036370D02*
X1066241Y633730D01*
G54D51*
X1323340Y662940D03*
X1272590Y663600D03*
X1154480D03*
X1087120Y664210D03*
X1036370Y663600D03*
X1205230Y664210D03*
G54D52*
X1307129Y1089660D03*
X1332529D03*
X1131869D03*
X1157269D03*
X1219499D03*
X1244899D03*
X1012190Y760730D03*
X1037590D03*
X1062990D03*
X1088390D03*
X1225550Y859790D03*
Y885190D03*
Y910590D03*
Y935990D03*
X1041699Y1089660D03*
X1067099D03*
G54D53*
X1403350Y1046480D03*
X1404620Y687070D03*
G54D54*
X1403350Y1021080D03*
Y995680D03*
Y970280D03*
Y944880D03*
Y919480D03*
X1404620Y763270D03*
Y737870D03*
Y712470D03*
G54D55*
X986790Y876030D03*
G54D56*
X986790Y924829D03*
G54D57*
X1372870Y865687D03*
Y821690D03*
G54D58*
X956310Y1042670D03*
X1001268D03*
Y977646D03*
X956310D03*
G54D59*
X958850Y814070D03*
X984250D03*
X1139190Y756920D03*
X1164590D03*
G54D60*
X1130554Y864870D03*
X1154684Y844296D03*
X1139952Y880110D03*
X1068070Y927862D03*
X1200150Y932180D03*
X1206500Y886460D03*
X1281430Y876300D03*
X1061720Y948690D03*
X1200150Y949960D03*
X1028700Y952500D03*
X1178560Y976630D03*
X1102360Y1032510D03*
X1136650D03*
X1123950Y1013460D03*
X1104900Y819150D03*
X988060Y711200D03*
X952500D03*
X1374140Y1038860D03*
X1243330Y1040130D03*
X1176020D03*
X1314450Y1038860D03*
X1078230Y1012190D03*
X988060Y762000D03*
X980440Y900430D03*
X947420Y844550D03*
X957580Y957580D03*
X1026160Y1012190D03*
X947420Y1008380D03*
X1046480Y842010D03*
X1123950Y890270D03*
X1084580D03*
Y932180D03*
X1122680D03*
X1153414Y825246D03*
X1139190Y734060D03*
X1230630Y730250D03*
X1333500D03*
X1303020Y814070D03*
X1380490Y778510D03*
X1383030Y693420D03*
X1355090Y876300D03*
X1377950Y899160D03*
X1314450Y1000760D03*
X1179830D03*
X1375410D03*
Y969010D03*
X1193800Y961390D03*
X1219200D03*
X1294130Y896620D03*
G54D61*
X1404620Y647700D03*
X971550Y648970D03*
X970280Y1087120D03*
X1405890Y1089660D03*
M02*