%FSLAX24Y24*%
%MOMM*%
%SFA1B1*%

%IPPOS*%
%AMD40*
4,1,8,0.802640,0.332740,0.332740,0.802640,-0.332740,0.802640,-0.802640,0.332740,-0.802640,-0.332740,-0.332740,-0.802640,0.332740,-0.802640,0.802640,-0.332740,0.802640,0.332740,0.0*
%
%ADD35C,2.703068*%
%ADD36C,1.727200*%
%ADD37R,1.703324X1.703324*%
%ADD38C,1.703324*%
%ADD39C,1.603248*%
G04~CAMADD=40~4~0.0~0.0~631.2~631.2~0.0~184.9~0~0.0~0.0~0.0~0.0~0~0.0~0.0~0.0~0.0~0~0.0~0.0~0.0~315.0~631.2~631.2*
%ADD40D40*%
%ADD41C,0.803148*%
%ADD42C,2.235200*%
%ADD43C,1.778000*%
%ADD44C,0.903224*%
%ADD45C,4.703318*%
%LNpcb_cloud_controller-1*%
%LPD*%
G54D35*
X1323340Y662940D03*
X1272590Y663600D03*
X1154480D03*
X1087120Y664210D03*
X1036370Y663600D03*
X1205230Y664210D03*
G54D36*
X1307129Y1089660D03*
X1332529D03*
X1131869D03*
X1157269D03*
X1219499D03*
X1244899D03*
X1012190Y760730D03*
X1037590D03*
X1062990D03*
X1088390D03*
X1225550Y859790D03*
Y885190D03*
Y910590D03*
Y935990D03*
X1041699Y1089660D03*
X1067099D03*
G54D37*
X1403350Y1046480D03*
X1404620Y687070D03*
G54D38*
X1403350Y1021080D03*
Y995680D03*
Y970280D03*
Y944880D03*
Y919480D03*
X1404620Y763270D03*
Y737870D03*
Y712470D03*
G54D39*
X986790Y876030D03*
G54D40*
X986790Y924829D03*
G54D41*
X1372870Y865687D03*
Y821690D03*
G54D42*
X956310Y1042670D03*
X1001268D03*
Y977646D03*
X956310D03*
G54D43*
X958850Y814070D03*
X984250D03*
X1139190Y756920D03*
X1164590D03*
G54D44*
X1130554Y864870D03*
X1154684Y844296D03*
X1139952Y880110D03*
X1068070Y927862D03*
X1200150Y932180D03*
X1206500Y886460D03*
X1281430Y876300D03*
X1061720Y948690D03*
X1200150Y949960D03*
X1028700Y952500D03*
X1178560Y976630D03*
X1102360Y1032510D03*
X1136650D03*
X1123950Y1013460D03*
X1104900Y819150D03*
X988060Y711200D03*
X952500D03*
X1374140Y1038860D03*
X1243330Y1040130D03*
X1176020D03*
X1314450Y1038860D03*
X1078230Y1012190D03*
X988060Y762000D03*
X980440Y900430D03*
X947420Y844550D03*
X957580Y957580D03*
X1026160Y1012190D03*
X947420Y1008380D03*
X1046480Y842010D03*
X1123950Y890270D03*
X1084580D03*
Y932180D03*
X1122680D03*
X1153414Y825246D03*
X1139190Y734060D03*
X1230630Y730250D03*
X1333500D03*
X1303020Y814070D03*
X1380490Y778510D03*
X1383030Y693420D03*
X1355090Y876300D03*
X1377950Y899160D03*
X1314450Y1000760D03*
X1179830D03*
X1375410D03*
Y969010D03*
X1193800Y961390D03*
X1219200D03*
X1294130Y896620D03*
G54D45*
X1404620Y647700D03*
X971550Y648970D03*
X970280Y1087120D03*
X1405890Y1089660D03*
M02*